<?xml version="1.0" standalone="yes"?>

<svg version="1.1" viewBox="0.0 0.0 946.0 495.0" fill="none" stroke="none" stroke-linecap="square" stroke-miterlimit="10" xmlns="http://www.w3.org/2000/svg" xmlns:xlink="http://www.w3.org/1999/xlink"><clipPath id="p.0"><path d="m0 0l946.0 0l0 495.0l-946.0 0l0 -495.0z" clip-rule="nonzero"></path></clipPath><g clip-path="url(#p.0)"><path fill="#000000" fill-opacity="0.0" d="m0 0l946.82416 0l0 495.61154l-946.82416 0z" fill-rule="nonzero"></path><path fill="#d9ead3" d="m411.1811 344.86496l0 0c0 -3.6819763 2.9848328 -6.666809 6.666809 -6.666809l510.22546 0c1.7681274 0 3.4638672 0.7023926 4.7141113 1.9526672c1.2503052 1.2502747 1.9526978 2.9460144 1.9526978 4.714142l0 26.666412c0 3.6819763 -2.9848633 6.6667786 -6.666809 6.6667786l-510.22546 0c-3.6819763 0 -6.666809 -2.9848022 -6.666809 -6.6667786z" fill-rule="nonzero"></path><path stroke="#93c47d" stroke-width="4.0" stroke-linejoin="round" stroke-linecap="butt" d="m411.1811 344.86496l0 0c0 -3.6819763 2.9848328 -6.666809 6.666809 -6.666809l510.22546 0c1.7681274 0 3.4638672 0.7023926 4.7141113 1.9526672c1.2503052 1.2502747 1.9526978 2.9460144 1.9526978 4.714142l0 26.666412c0 3.6819763 -2.9848633 6.6667786 -6.666809 6.6667786l-510.22546 0c-3.6819763 0 -6.666809 -2.9848022 -6.666809 -6.6667786z" fill-rule="nonzero"></path><path fill="#000000" fill-opacity="0.0" d="m439.4364 339.67847l0 37.039368" fill-rule="nonzero"></path><path stroke="#4a86e8" stroke-width="2.0" stroke-linejoin="round" stroke-linecap="butt" d="m439.4364 339.67847l0 37.039368" fill-rule="nonzero"></path><path fill="#000000" fill-opacity="0.0" d="m466.44394 339.67847l0 37.039368" fill-rule="nonzero"></path><path stroke="#4a86e8" stroke-width="2.0" stroke-linejoin="round" stroke-linecap="butt" d="m466.44394 339.67847l0 37.039368" fill-rule="nonzero"></path><path fill="#000000" fill-opacity="0.0" d="m490.9596 339.67847l0 37.039368" fill-rule="nonzero"></path><path stroke="#4a86e8" stroke-width="2.0" stroke-linejoin="round" stroke-linecap="butt" d="m490.9596 339.67847l0 37.039368" fill-rule="nonzero"></path><path fill="#000000" fill-opacity="0.0" d="m515.8912 339.67847l0 37.039368" fill-rule="nonzero"></path><path stroke="#4a86e8" stroke-width="2.0" stroke-linejoin="round" stroke-linecap="butt" d="m515.8912 339.67847l0 37.039368" fill-rule="nonzero"></path><path fill="#000000" fill-opacity="0.0" d="m567.41437 339.67847l0 37.039368" fill-rule="nonzero"></path><path stroke="#4a86e8" stroke-width="2.0" stroke-linejoin="round" stroke-linecap="butt" d="m567.41437 339.67847l0 37.039368" fill-rule="nonzero"></path><path fill="#000000" fill-opacity="0.0" d="m542.8987 339.67847l0 37.039368" fill-rule="nonzero"></path><path stroke="#4a86e8" stroke-width="2.0" stroke-linejoin="round" stroke-linecap="butt" d="m542.8987 339.67847l0 37.039368" fill-rule="nonzero"></path><path fill="#000000" fill-opacity="0.0" d="m595.2556 339.67847l0 37.039368" fill-rule="nonzero"></path><path stroke="#4a86e8" stroke-width="2.0" stroke-linejoin="round" stroke-linecap="butt" d="m595.2556 339.67847l0 37.039368" fill-rule="nonzero"></path><path fill="#000000" fill-opacity="0.0" d="m622.2631 339.67847l0 37.039368" fill-rule="nonzero"></path><path stroke="#4a86e8" stroke-width="2.0" stroke-linejoin="round" stroke-linecap="butt" d="m622.2631 339.67847l0 37.039368" fill-rule="nonzero"></path><path fill="#000000" fill-opacity="0.0" d="m646.7788 339.67847l0 37.039368" fill-rule="nonzero"></path><path stroke="#4a86e8" stroke-width="2.0" stroke-linejoin="round" stroke-linecap="butt" d="m646.7788 339.67847l0 37.039368" fill-rule="nonzero"></path><path fill="#000000" fill-opacity="0.0" d="m671.7104 339.67847l0 37.039368" fill-rule="nonzero"></path><path stroke="#4a86e8" stroke-width="2.0" stroke-linejoin="round" stroke-linecap="butt" d="m671.7104 339.67847l0 37.039368" fill-rule="nonzero"></path><path fill="#000000" fill-opacity="0.0" d="m698.7179 339.67847l0 37.039368" fill-rule="nonzero"></path><path stroke="#4a86e8" stroke-width="2.0" stroke-linejoin="round" stroke-linecap="butt" d="m698.7179 339.67847l0 37.039368" fill-rule="nonzero"></path><path fill="#000000" fill-opacity="0.0" d="m723.2336 339.67847l0 37.039368" fill-rule="nonzero"></path><path stroke="#000000" stroke-width="2.0" stroke-linejoin="round" stroke-linecap="butt" d="m723.2336 339.67847l0 37.039368" fill-rule="nonzero"></path><path fill="#000000" fill-opacity="0.0" d="m747.74927 339.67847l0 37.039368" fill-rule="nonzero"></path><path stroke="#4a86e8" stroke-width="2.0" stroke-linejoin="round" stroke-linecap="butt" d="m747.74927 339.67847l0 37.039368" fill-rule="nonzero"></path><path fill="#000000" fill-opacity="0.0" d="m723.2336 339.67847l0 37.039368" fill-rule="nonzero"></path><path stroke="#4a86e8" stroke-width="2.0" stroke-linejoin="round" stroke-linecap="butt" d="m723.2336 339.67847l0 37.039368" fill-rule="nonzero"></path><path fill="#000000" fill-opacity="0.0" d="m775.59045 339.67847l0 37.039368" fill-rule="nonzero"></path><path stroke="#4a86e8" stroke-width="2.0" stroke-linejoin="round" stroke-linecap="butt" stroke-dasharray="8.0,6.0" d="m775.59045 339.67847l0 37.039368" fill-rule="nonzero"></path><path fill="#000000" fill-opacity="0.0" d="m802.598 339.67847l0 37.039368" fill-rule="nonzero"></path><path stroke="#4a86e8" stroke-width="2.0" stroke-linejoin="round" stroke-linecap="butt" stroke-dasharray="8.0,6.0" d="m802.598 339.67847l0 37.039368" fill-rule="nonzero"></path><path fill="#000000" fill-opacity="0.0" d="m827.1137 339.67847l0 37.039368" fill-rule="nonzero"></path><path stroke="#4a86e8" stroke-width="2.0" stroke-linejoin="round" stroke-linecap="butt" stroke-dasharray="8.0,6.0" d="m827.1137 339.67847l0 37.039368" fill-rule="nonzero"></path><path fill="#000000" fill-opacity="0.0" d="m852.04517 339.67847l0 37.039368" fill-rule="nonzero"></path><path stroke="#4a86e8" stroke-width="2.0" stroke-linejoin="round" stroke-linecap="butt" stroke-dasharray="8.0,6.0" d="m852.04517 339.67847l0 37.039368" fill-rule="nonzero"></path><path fill="#000000" fill-opacity="0.0" d="m879.05273 339.67847l0 37.039368" fill-rule="nonzero"></path><path stroke="#4a86e8" stroke-width="2.0" stroke-linejoin="round" stroke-linecap="butt" d="m879.05273 339.67847l0 37.039368" fill-rule="nonzero"></path><path fill="#000000" fill-opacity="0.0" d="m903.5684 339.67847l0 37.039368" fill-rule="nonzero"></path><path stroke="#4a86e8" stroke-width="2.0" stroke-linejoin="round" stroke-linecap="butt" d="m903.5684 339.67847l0 37.039368" fill-rule="nonzero"></path><path fill="#efefef" d="m182.4042 95.28084l136.8819 0l0 122.26773l-136.8819 0z" fill-rule="nonzero"></path><path stroke="#666666" stroke-width="4.0" stroke-linejoin="round" stroke-linecap="butt" stroke-dasharray="16.0,12.0" d="m182.4042 95.28084l136.8819 0l0 122.26773l-136.8819 0z" fill-rule="nonzero"></path><path fill="#000000" fill-opacity="0.0" d="m874.87665 334.9475c0 -29.212616 -23.88977 -58.4252 -47.77954 -58.4252" fill-rule="nonzero"></path><path stroke="#93c47d" stroke-width="4.0" stroke-linejoin="round" stroke-linecap="butt" d="m873.21185 321.3406l-0.15881348 -0.6421814c-0.05621338 -0.22207642 -0.11364746 -0.44384766 -0.17230225 -0.66534424c-0.11730957 -0.44296265 -0.23944092 -0.8847046 -0.36621094 -1.3251038c-0.5074463 -1.7615967 -1.0906982 -3.5018005 -1.7439575 -5.2134705c-2.612915 -6.84671 -6.345703 -13.236969 -10.825012 -18.714325c-8.958679 -10.954712 -20.903564 -18.257874 -32.84845 -18.257874" fill-rule="evenodd"></path><path fill="#93c47d" stroke="#93c47d" stroke-width="4.0" stroke-linecap="butt" d="m873.21185 321.34064l-5.0112915 -3.9187622l5.9659424 11.721313l2.9641113 -12.813904z" fill-rule="evenodd"></path><path fill="#000000" fill-opacity="0.0" d="m526.4383 295.65353l0 38.519684" fill-rule="nonzero"></path><path stroke="#dd7e6b" stroke-width="4.0" stroke-linejoin="round" stroke-linecap="butt" d="m526.4383 295.65353l0 14.519684" fill-rule="evenodd"></path><path fill="#dd7e6b" stroke="#dd7e6b" stroke-width="4.0" stroke-linecap="butt" d="m519.8314 310.17322l6.6068726 18.152405l6.6069336 -18.152405z" fill-rule="evenodd"></path><path fill="#000000" fill-opacity="0.0" d="m553.1837 295.65353l0 38.519684" fill-rule="nonzero"></path><path stroke="#999999" stroke-width="4.0" stroke-linejoin="round" stroke-linecap="butt" d="m553.1837 295.65353l0 14.519684" fill-rule="evenodd"></path><path fill="#999999" stroke="#999999" stroke-width="4.0" stroke-linecap="butt" d="m546.5768 310.17322l6.6069336 18.152405l6.6069336 -18.152405z" fill-rule="evenodd"></path><path fill="#000000" fill-opacity="0.0" d="m486.3281 293.1404l47.77951 0l0 38.26773l-47.77951 0z" fill-rule="nonzero"></path><path fill="#dd7e6b" d="m508.6026 311.0398l0 -3.046875l3.296875 0l0 3.046875l-3.296875 0zm0 14.140625l0 -12.453125l3.296875 0l0 12.453125l-3.296875 0z" fill-rule="nonzero"></path><path fill="#000000" fill-opacity="0.0" d="m553.1837 293.1404l222.2362 0l0 38.26773l-222.2362 0z" fill-rule="nonzero"></path><path fill="#999999" d="m567.89105 318.78043l0 -12.0625l2.46875 0l0 10.015625l6.109375 0l0 2.046875l-8.578125 0zm12.256592 -6.125l-2.125 -0.390625q0.359375 -1.265625 1.234375 -1.875q0.875 -0.625 2.59375 -0.625q1.546875 0 2.3125 0.375q0.765625 0.359375 1.078125 0.9375q0.3125 0.5625 0.3125 2.078125l-0.03125 2.734375q0 1.15625 0.109375 1.71875q0.125 0.546875 0.421875 1.171875l-2.296875 0q-0.09375 -0.234375 -0.234375 -0.6875q-0.046875 -0.203125 -0.078125 -0.28125q-0.59375 0.59375 -1.28125 0.890625q-0.671875 0.28125 -1.453125 0.28125q-1.359375 0 -2.140625 -0.734375q-0.78125 -0.75 -0.78125 -1.875q0 -0.75 0.34375 -1.328125q0.359375 -0.59375 1.0 -0.90625q0.65625 -0.3125 1.859375 -0.546875q1.640625 -0.296875 2.265625 -0.5625l0 -0.234375q0 -0.671875 -0.328125 -0.953125q-0.328125 -0.296875 -1.25 -0.296875q-0.625 0 -0.984375 0.25q-0.34375 0.25 -0.546875 0.859375zm3.109375 1.890625q-0.4375 0.15625 -1.421875 0.359375q-0.96875 0.203125 -1.265625 0.40625q-0.453125 0.328125 -0.453125 0.828125q0 0.484375 0.359375 0.84375q0.375 0.359375 0.9375 0.359375q0.625 0 1.203125 -0.421875q0.421875 -0.3125 0.5625 -0.765625q0.078125 -0.3125 0.078125 -1.140625l0 -0.46875zm3.96521 1.71875l2.328125 -0.359375q0.15625 0.6875 0.609375 1.046875q0.453125 0.34375 1.28125 0.34375q0.90625 0 1.359375 -0.328125q0.3125 -0.234375 0.3125 -0.625q0 -0.265625 -0.171875 -0.4375q-0.171875 -0.171875 -0.78125 -0.3125q-2.8125 -0.625 -3.578125 -1.140625q-1.046875 -0.703125 -1.046875 -1.984375q0 -1.140625 0.90625 -1.921875q0.90625 -0.78125 2.8125 -0.78125q1.8125 0 2.6875 0.59375q0.875 0.578125 1.203125 1.734375l-2.1875 0.40625q-0.140625 -0.515625 -0.546875 -0.78125q-0.390625 -0.28125 -1.125 -0.28125q-0.921875 0 -1.3125 0.265625q-0.265625 0.1875 -0.265625 0.46875q0 0.25 0.234375 0.421875q0.3125 0.234375 2.171875 0.65625q1.859375 0.421875 2.609375 1.046875q0.734375 0.609375 0.734375 1.734375q0 1.203125 -1.015625 2.078125q-1.015625 0.875 -3.0 0.875q-1.796875 0 -2.859375 -0.734375q-1.046875 -0.734375 -1.359375 -1.984375zm14.49646 -6.296875l0 1.859375l-1.59375 0l0 3.546875q0 1.078125 0.046875 1.265625q0.046875 0.171875 0.203125 0.296875q0.15625 0.109375 0.390625 0.109375q0.328125 0 0.9375 -0.21875l0.203125 1.796875q-0.8125 0.359375 -1.84375 0.359375q-0.625 0 -1.140625 -0.203125q-0.5 -0.21875 -0.734375 -0.546875q-0.234375 -0.34375 -0.328125 -0.921875q-0.078125 -0.40625 -0.078125 -1.640625l0 -3.84375l-1.078125 0l0 -1.859375l1.078125 0l0 -1.75l2.34375 -1.359375l0 3.109375l1.59375 0zm12.334717 8.8125l0 -1.3125q-0.46875 0.703125 -1.265625 1.109375q-0.78125 0.40625 -1.65625 0.40625q-0.875 0 -1.59375 -0.390625q-0.703125 -0.390625 -1.015625 -1.09375q-0.3125 -0.71875 -0.3125 -1.953125l0 -5.578125l2.328125 0l0 4.046875q0 1.859375 0.125 2.28125q0.140625 0.421875 0.46875 0.671875q0.34375 0.234375 0.875 0.234375q0.59375 0 1.0625 -0.328125q0.484375 -0.328125 0.65625 -0.8125q0.171875 -0.484375 0.171875 -2.375l0 -3.71875l2.328125 0l0 8.8125l-2.171875 0zm4.725342 -8.8125l2.171875 0l0 1.296875q0.421875 -0.671875 1.140625 -1.078125q0.734375 -0.421875 1.609375 -0.421875q1.53125 0 2.59375 1.203125q1.078125 1.203125 1.078125 3.359375q0 2.203125 -1.078125 3.4375q-1.078125 1.21875 -2.609375 1.21875q-0.734375 0 -1.328125 -0.28125q-0.59375 -0.296875 -1.25 -1.015625l0 4.453125l-2.328125 0l0 -12.171875zm2.3125 4.25q0 1.484375 0.578125 2.203125q0.59375 0.703125 1.4375 0.703125q0.8125 0 1.34375 -0.640625q0.546875 -0.65625 0.546875 -2.140625q0 -1.390625 -0.5625 -2.0625q-0.546875 -0.671875 -1.359375 -0.671875q-0.859375 0 -1.421875 0.65625q-0.5625 0.65625 -0.5625 1.953125zm16.428467 4.5625l-2.171875 0l0 -1.296875q-0.546875 0.75 -1.28125 1.125q-0.734375 0.375 -1.46875 0.375q-1.53125 0 -2.609375 -1.21875q-1.078125 -1.234375 -1.078125 -3.421875q0 -2.25 1.046875 -3.40625q1.0625 -1.171875 2.671875 -1.171875q1.46875 0 2.546875 1.234375l0 -4.390625l2.34375 0l0 12.171875zm-6.234375 -4.59375q0 1.40625 0.390625 2.03125q0.5625 0.921875 1.578125 0.921875q0.8125 0 1.375 -0.6875q0.5625 -0.6875 0.5625 -2.046875q0 -1.515625 -0.546875 -2.1875q-0.546875 -0.671875 -1.40625 -0.671875q-0.828125 0 -1.390625 0.671875q-0.5625 0.65625 -0.5625 1.96875zm10.475342 -1.53125l-2.125 -0.390625q0.359375 -1.265625 1.234375 -1.875q0.875 -0.625 2.59375 -0.625q1.546875 0 2.3125 0.375q0.765625 0.359375 1.078125 0.9375q0.3125 0.5625 0.3125 2.078125l-0.03125 2.734375q0 1.15625 0.109375 1.71875q0.125 0.546875 0.421875 1.171875l-2.296875 0q-0.09375 -0.234375 -0.234375 -0.6875q-0.046875 -0.203125 -0.078125 -0.28125q-0.59375 0.59375 -1.28125 0.890625q-0.671875 0.28125 -1.453125 0.28125q-1.359375 0 -2.140625 -0.734375q-0.78125 -0.75 -0.78125 -1.875q0 -0.75 0.34375 -1.328125q0.359375 -0.59375 1.0 -0.90625q0.65625 -0.3125 1.859375 -0.546875q1.640625 -0.296875 2.265625 -0.5625l0 -0.234375q0 -0.671875 -0.328125 -0.953125q-0.328125 -0.296875 -1.25 -0.296875q-0.625 0 -0.984375 0.25q-0.34375 0.25 -0.546875 0.859375zm3.109375 1.890625q-0.4375 0.15625 -1.421875 0.359375q-0.96875 0.203125 -1.265625 0.40625q-0.453125 0.328125 -0.453125 0.828125q0 0.484375 0.359375 0.84375q0.375 0.359375 0.9375 0.359375q0.625 0 1.203125 -0.421875q0.421875 -0.3125 0.5625 -0.765625q0.078125 -0.3125 0.078125 -1.140625l0 -0.46875zm8.824585 -4.578125l0 1.859375l-1.59375 0l0 3.546875q0 1.078125 0.046875 1.265625q0.046875 0.171875 0.203125 0.296875q0.15625 0.109375 0.390625 0.109375q0.328125 0 0.9375 -0.21875l0.203125 1.796875q-0.8125 0.359375 -1.84375 0.359375q-0.625 0 -1.140625 -0.203125q-0.5 -0.21875 -0.734375 -0.546875q-0.234375 -0.34375 -0.328125 -0.921875q-0.078125 -0.40625 -0.078125 -1.640625l0 -3.84375l-1.078125 0l0 -1.859375l1.078125 0l0 -1.75l2.34375 -1.359375l0 3.109375l1.59375 0zm6.8328857 6.0l2.328125 0.390625q-0.453125 1.28125 -1.421875 1.953125q-0.96875 0.671875 -2.421875 0.671875q-2.296875 0 -3.40625 -1.5q-0.859375 -1.203125 -0.859375 -3.046875q0 -2.1875 1.140625 -3.421875q1.140625 -1.25 2.890625 -1.25q1.96875 0 3.109375 1.296875q1.140625 1.296875 1.09375 3.984375l-5.84375 0q0.015625 1.03125 0.546875 1.609375q0.546875 0.578125 1.359375 0.578125q0.546875 0 0.921875 -0.296875q0.375 -0.296875 0.5625 -0.96875zm0.125 -2.34375q-0.015625 -1.015625 -0.515625 -1.546875q-0.5 -0.53125 -1.21875 -0.53125q-0.765625 0 -1.25 0.5625q-0.5 0.546875 -0.5 1.515625l3.484375 0zm12.49646 5.15625l-2.171875 0l0 -1.296875q-0.546875 0.75 -1.28125 1.125q-0.734375 0.375 -1.46875 0.375q-1.53125 0 -2.609375 -1.21875q-1.078125 -1.234375 -1.078125 -3.421875q0 -2.25 1.046875 -3.40625q1.0625 -1.171875 2.671875 -1.171875q1.46875 0 2.546875 1.234375l0 -4.390625l2.34375 0l0 12.171875zm-6.234375 -4.59375q0 1.40625 0.390625 2.03125q0.5625 0.921875 1.578125 0.921875q0.8125 0 1.375 -0.6875q0.5625 -0.6875 0.5625 -2.046875q0 -1.515625 -0.546875 -2.1875q-0.546875 -0.671875 -1.40625 -0.671875q-0.828125 0 -1.390625 0.671875q-0.5625 0.65625 -0.5625 1.96875zm13.477173 -4.21875l2.171875 0l0 1.296875q0.421875 -0.671875 1.140625 -1.078125q0.734375 -0.421875 1.609375 -0.421875q1.53125 0 2.59375 1.203125q1.078125 1.203125 1.078125 3.359375q0 2.203125 -1.078125 3.4375q-1.078125 1.21875 -2.609375 1.21875q-0.734375 0 -1.328125 -0.28125q-0.59375 -0.296875 -1.25 -1.015625l0 4.453125l-2.328125 0l0 -12.171875zm2.3125 4.25q0 1.484375 0.578125 2.203125q0.59375 0.703125 1.4375 0.703125q0.8125 0 1.34375 -0.640625q0.546875 -0.65625 0.546875 -2.140625q0 -1.390625 -0.5625 -2.0625q-0.546875 -0.671875 -1.359375 -0.671875q-0.859375 0 -1.421875 0.65625q-0.5625 0.65625 -0.5625 1.953125zm7.803467 0.03125q0 -1.15625 0.5625 -2.25q0.578125 -1.09375 1.625 -1.65625q1.046875 -0.578125 2.34375 -0.578125q2.0 0 3.28125 1.296875q1.28125 1.296875 1.28125 3.28125q0 2.0 -1.296875 3.328125q-1.28125 1.3125 -3.25 1.3125q-1.203125 0 -2.3125 -0.546875q-1.09375 -0.546875 -1.671875 -1.609375q-0.5625 -1.0625 -0.5625 -2.578125zm2.390625 0.125q0 1.3125 0.609375 2.015625q0.625 0.6875 1.546875 0.6875q0.90625 0 1.515625 -0.6875q0.625 -0.703125 0.625 -2.03125q0 -1.296875 -0.625 -1.984375q-0.609375 -0.703125 -1.515625 -0.703125q-0.921875 0 -1.546875 0.703125q-0.609375 0.6875 -0.609375 2.0zm8.194092 -0.125q0 -1.15625 0.5625 -2.25q0.578125 -1.09375 1.625 -1.65625q1.046875 -0.578125 2.34375 -0.578125q2.0 0 3.28125 1.296875q1.28125 1.296875 1.28125 3.28125q0 2.0 -1.296875 3.328125q-1.28125 1.3125 -3.25 1.3125q-1.203125 0 -2.3125 -0.546875q-1.09375 -0.546875 -1.671875 -1.609375q-0.5625 -1.0625 -0.5625 -2.578125zm2.390625 0.125q0 1.3125 0.609375 2.015625q0.625 0.6875 1.546875 0.6875q0.90625 0 1.515625 -0.6875q0.625 -0.703125 0.625 -2.03125q0 -1.296875 -0.625 -1.984375q-0.609375 -0.703125 -1.515625 -0.703125q-0.921875 0 -1.546875 0.703125q-0.609375 0.6875 -0.609375 2.0zm8.725342 4.40625l0 -12.171875l2.328125 0l0 12.171875l-2.328125 0zm11.269226 0l-2.78125 -8.8125l2.265625 0l1.65625 5.78125l1.515625 -5.78125l2.25 0l1.46875 5.78125l1.6875 -5.78125l2.296875 0l-2.828125 8.8125l-2.25 0l-1.515625 -5.671875l-1.5 5.671875l-2.265625 0zm11.306519 -4.53125q0 -1.15625 0.5625 -2.25q0.578125 -1.09375 1.625 -1.65625q1.046875 -0.578125 2.34375 -0.578125q2.0 0 3.28125 1.296875q1.28125 1.296875 1.28125 3.28125q0 2.0 -1.296875 3.328125q-1.28125 1.3125 -3.25 1.3125q-1.203125 0 -2.3125 -0.546875q-1.09375 -0.546875 -1.671875 -1.609375q-0.5625 -1.0625 -0.5625 -2.578125zm2.390625 0.125q0 1.3125 0.609375 2.015625q0.625 0.6875 1.546875 0.6875q0.90625 0 1.515625 -0.6875q0.625 -0.703125 0.625 -2.03125q0 -1.296875 -0.625 -1.984375q-0.609375 -0.703125 -1.515625 -0.703125q-0.921875 0 -1.546875 0.703125q-0.609375 0.6875 -0.609375 2.0zm10.959717 4.40625l-2.328125 0l0 -8.8125l2.15625 0l0 1.25q0.5625 -0.890625 1.0 -1.171875q0.453125 -0.28125 1.015625 -0.28125q0.796875 0 1.53125 0.4375l-0.71875 2.03125q-0.59375 -0.375 -1.09375 -0.375q-0.484375 0 -0.828125 0.265625q-0.34375 0.265625 -0.546875 0.984375q-0.1875 0.703125 -0.1875 2.953125l0 2.71875zm12.602783 0l-2.171875 0l0 -1.296875q-0.546875 0.75 -1.28125 1.125q-0.734375 0.375 -1.46875 0.375q-1.53125 0 -2.609375 -1.21875q-1.078125 -1.234375 -1.078125 -3.421875q0 -2.25 1.046875 -3.40625q1.0625 -1.171875 2.671875 -1.171875q1.46875 0 2.546875 1.234375l0 -4.390625l2.34375 0l0 12.171875zm-6.234375 -4.59375q0 1.40625 0.390625 2.03125q0.5625 0.921875 1.578125 0.921875q0.8125 0 1.375 -0.6875q0.5625 -0.6875 0.5625 -2.046875q0 -1.515625 -0.546875 -2.1875q-0.546875 -0.671875 -1.40625 -0.671875q-0.828125 0 -1.390625 0.671875q-0.5625 0.65625 -0.5625 1.96875z" fill-rule="nonzero"></path><path fill="#000000" fill-opacity="0.0" d="m595.2546 257.38846l231.84253 0l0 38.2677l-231.84253 0z" fill-rule="nonzero"></path><path fill="#93c47d" d="m608.4287 283.02844l0 -12.171875l3.953125 0q2.234375 0 2.921875 0.1875q1.03125 0.265625 1.734375 1.1875q0.71875 0.921875 0.71875 2.375q0 1.109375 -0.40625 1.875q-0.40625 0.765625 -1.046875 1.203125q-0.625 0.4375 -1.265625 0.578125q-0.875 0.171875 -2.546875 0.171875l-1.609375 0l0 4.59375l-2.453125 0zm2.453125 -10.109375l0 3.453125l1.34375 0q1.453125 0 1.9375 -0.1875q0.5 -0.203125 0.78125 -0.609375q0.28125 -0.40625 0.28125 -0.9375q0 -0.671875 -0.390625 -1.09375q-0.390625 -0.4375 -0.984375 -0.546875q-0.453125 -0.078125 -1.78125 -0.078125l-1.1875 0zm8.557739 5.578125q0 -1.15625 0.5625 -2.25q0.578125 -1.09375 1.625 -1.65625q1.046875 -0.578125 2.34375 -0.578125q2.0 0 3.28125 1.296875q1.28125 1.296875 1.28125 3.28125q0 2.0 -1.296875 3.328125q-1.28125 1.3125 -3.25 1.3125q-1.203125 0 -2.3125 -0.546875q-1.09375 -0.546875 -1.671875 -1.609375q-0.5625 -1.0625 -0.5625 -2.578125zm2.390625 0.125q0 1.3125 0.609375 2.015625q0.625 0.6875 1.546875 0.6875q0.90625 0 1.515625 -0.6875q0.625 -0.703125 0.625 -2.03125q0 -1.296875 -0.625 -1.984375q-0.609375 -0.703125 -1.515625 -0.703125q-0.921875 0 -1.546875 0.703125q-0.609375 0.6875 -0.609375 2.0zm8.194092 -0.125q0 -1.15625 0.5625 -2.25q0.578125 -1.09375 1.625 -1.65625q1.046875 -0.578125 2.34375 -0.578125q2.0 0 3.28125 1.296875q1.28125 1.296875 1.28125 3.28125q0 2.0 -1.296875 3.328125q-1.28125 1.3125 -3.25 1.3125q-1.203125 0 -2.3125 -0.546875q-1.09375 -0.546875 -1.671875 -1.609375q-0.5625 -1.0625 -0.5625 -2.578125zm2.390625 0.125q0 1.3125 0.609375 2.015625q0.625 0.6875 1.546875 0.6875q0.90625 0 1.515625 -0.6875q0.625 -0.703125 0.625 -2.03125q0 -1.296875 -0.625 -1.984375q-0.609375 -0.703125 -1.515625 -0.703125q-0.921875 0 -1.546875 0.703125q-0.609375 0.6875 -0.609375 2.0zm8.725342 4.40625l0 -12.171875l2.328125 0l0 12.171875l-2.328125 0zm9.566101 0l0 -12.171875l2.46875 0l0 12.171875l-2.46875 0zm12.892456 0l-2.328125 0l0 -4.5q0 -1.421875 -0.15625 -1.84375q-0.140625 -0.421875 -0.484375 -0.65625q-0.328125 -0.234375 -0.796875 -0.234375q-0.609375 0 -1.09375 0.34375q-0.484375 0.328125 -0.671875 0.875q-0.171875 0.546875 -0.171875 2.015625l0 4.0l-2.328125 0l0 -8.8125l2.171875 0l0 1.296875q1.15625 -1.5 2.90625 -1.5q0.765625 0 1.40625 0.28125q0.640625 0.28125 0.96875 0.71875q0.328125 0.421875 0.453125 0.96875q0.125 0.546875 0.125 1.5625l0 5.484375zm6.615967 -8.8125l0 1.859375l-1.59375 0l0 3.546875q0 1.078125 0.046875 1.265625q0.046875 0.171875 0.203125 0.296875q0.15625 0.109375 0.390625 0.109375q0.328125 0 0.9375 -0.21875l0.203125 1.796875q-0.8125 0.359375 -1.84375 0.359375q-0.625 0 -1.140625 -0.203125q-0.5 -0.21875 -0.734375 -0.546875q-0.234375 -0.34375 -0.328125 -0.921875q-0.078125 -0.40625 -0.078125 -1.640625l0 -3.84375l-1.078125 0l0 -1.859375l1.078125 0l0 -1.75l2.34375 -1.359375l0 3.109375l1.59375 0zm6.8328857 6.0l2.328125 0.390625q-0.453125 1.28125 -1.421875 1.953125q-0.96875 0.671875 -2.421875 0.671875q-2.296875 0 -3.40625 -1.5q-0.859375 -1.203125 -0.859375 -3.046875q0 -2.1875 1.140625 -3.421875q1.140625 -1.25 2.890625 -1.25q1.96875 0 3.109375 1.296875q1.140625 1.296875 1.09375 3.984375l-5.84375 0q0.015625 1.03125 0.546875 1.609375q0.546875 0.578125 1.359375 0.578125q0.546875 0 0.921875 -0.296875q0.375 -0.296875 0.5625 -0.96875zm0.125 -2.34375q-0.015625 -1.015625 -0.515625 -1.546875q-0.5 -0.53125 -1.21875 -0.53125q-0.765625 0 -1.25 0.5625q-0.5 0.546875 -0.5 1.515625l3.484375 0zm6.637085 5.15625l-2.328125 0l0 -8.8125l2.15625 0l0 1.25q0.5625 -0.890625 1.0 -1.171875q0.453125 -0.28125 1.015625 -0.28125q0.796875 0 1.53125 0.4375l-0.71875 2.03125q-0.59375 -0.375 -1.09375 -0.375q-0.484375 0 -0.828125 0.265625q-0.34375 0.265625 -0.546875 0.984375q-0.1875 0.703125 -0.1875 2.953125l0 2.71875zm12.524719 0l-2.328125 0l0 -4.5q0 -1.421875 -0.15625 -1.84375q-0.140625 -0.421875 -0.484375 -0.65625q-0.328125 -0.234375 -0.796875 -0.234375q-0.609375 0 -1.09375 0.34375q-0.484375 0.328125 -0.671875 0.875q-0.171875 0.546875 -0.171875 2.015625l0 4.0l-2.328125 0l0 -8.8125l2.171875 0l0 1.296875q1.15625 -1.5 2.90625 -1.5q0.765625 0 1.40625 0.28125q0.640625 0.28125 0.96875 0.71875q0.328125 0.421875 0.453125 0.96875q0.125 0.546875 0.125 1.5625l0 5.484375zm4.319092 -6.125l-2.125 -0.390625q0.359375 -1.265625 1.234375 -1.875q0.875 -0.625 2.59375 -0.625q1.546875 0 2.3125 0.375q0.765625 0.359375 1.078125 0.9375q0.3125 0.5625 0.3125 2.078125l-0.03125 2.734375q0 1.15625 0.109375 1.71875q0.125 0.546875 0.421875 1.171875l-2.296875 0q-0.09375 -0.234375 -0.234375 -0.6875q-0.046875 -0.203125 -0.078125 -0.28125q-0.59375 0.59375 -1.28125 0.890625q-0.671875 0.28125 -1.453125 0.28125q-1.359375 0 -2.140625 -0.734375q-0.78125 -0.75 -0.78125 -1.875q0 -0.75 0.34375 -1.328125q0.359375 -0.59375 1.0 -0.90625q0.65625 -0.3125 1.859375 -0.546875q1.640625 -0.296875 2.265625 -0.5625l0 -0.234375q0 -0.671875 -0.328125 -0.953125q-0.328125 -0.296875 -1.25 -0.296875q-0.625 0 -0.984375 0.25q-0.34375 0.25 -0.546875 0.859375zm3.109375 1.890625q-0.4375 0.15625 -1.421875 0.359375q-0.96875 0.203125 -1.265625 0.40625q-0.453125 0.328125 -0.453125 0.828125q0 0.484375 0.359375 0.84375q0.375 0.359375 0.9375 0.359375q0.625 0 1.203125 -0.421875q0.421875 -0.3125 0.5625 -0.765625q0.078125 -0.3125 0.078125 -1.140625l0 -0.46875zm4.77771 4.234375l0 -12.171875l2.328125 0l0 12.171875l-2.328125 0zm9.019226 -3.953125l2.390625 -0.234375q0.21875 1.203125 0.875 1.765625q0.671875 0.5625 1.78125 0.5625q1.1875 0 1.78125 -0.5q0.609375 -0.5 0.609375 -1.171875q0 -0.4375 -0.25 -0.734375q-0.25 -0.3125 -0.875 -0.53125q-0.4375 -0.15625 -1.96875 -0.53125q-1.984375 -0.484375 -2.78125 -1.203125q-1.125 -1.0 -1.125 -2.453125q0 -0.921875 0.53125 -1.734375q0.53125 -0.8125 1.515625 -1.234375q1.0 -0.421875 2.40625 -0.421875q2.28125 0 3.4375 1.0q1.171875 1.0 1.21875 2.6875l-2.453125 0.109375q-0.15625 -0.9375 -0.671875 -1.34375q-0.515625 -0.421875 -1.5625 -0.421875q-1.0625 0 -1.671875 0.4375q-0.390625 0.28125 -0.390625 0.765625q0 0.421875 0.359375 0.734375q0.46875 0.390625 2.25 0.8125q1.796875 0.421875 2.65625 0.875q0.859375 0.453125 1.34375 1.234375q0.5 0.78125 0.5 1.9375q0 1.046875 -0.59375 1.96875q-0.578125 0.90625 -1.640625 1.359375q-1.0625 0.4375 -2.640625 0.4375q-2.3125 0 -3.546875 -1.0625q-1.234375 -1.078125 -1.484375 -3.109375zm16.21399 -4.859375l0 1.859375l-1.59375 0l0 3.546875q0 1.078125 0.046875 1.265625q0.046875 0.171875 0.203125 0.296875q0.15625 0.109375 0.390625 0.109375q0.328125 0 0.9375 -0.21875l0.203125 1.796875q-0.8125 0.359375 -1.84375 0.359375q-0.625 0 -1.140625 -0.203125q-0.5 -0.21875 -0.734375 -0.546875q-0.234375 -0.34375 -0.328125 -0.921875q-0.078125 -0.40625 -0.078125 -1.640625l0 -3.84375l-1.078125 0l0 -1.859375l1.078125 0l0 -1.75l2.34375 -1.359375l0 3.109375l1.59375 0zm3.4735107 2.6875l-2.125 -0.390625q0.359375 -1.265625 1.234375 -1.875q0.875 -0.625 2.59375 -0.625q1.546875 0 2.3125 0.375q0.765625 0.359375 1.078125 0.9375q0.3125 0.5625 0.3125 2.078125l-0.03125 2.734375q0 1.15625 0.109375 1.71875q0.125 0.546875 0.421875 1.171875l-2.296875 0q-0.09375 -0.234375 -0.234375 -0.6875q-0.046875 -0.203125 -0.078125 -0.28125q-0.59375 0.59375 -1.28125 0.890625q-0.671875 0.28125 -1.453125 0.28125q-1.359375 0 -2.140625 -0.734375q-0.78125 -0.75 -0.78125 -1.875q0 -0.75 0.34375 -1.328125q0.359375 -0.59375 1.0 -0.90625q0.65625 -0.3125 1.859375 -0.546875q1.640625 -0.296875 2.265625 -0.5625l0 -0.234375q0 -0.671875 -0.328125 -0.953125q-0.328125 -0.296875 -1.25 -0.296875q-0.625 0 -0.984375 0.25q-0.34375 0.25 -0.546875 0.859375zm3.109375 1.890625q-0.4375 0.15625 -1.421875 0.359375q-0.96875 0.203125 -1.265625 0.40625q-0.453125 0.328125 -0.453125 0.828125q0 0.484375 0.359375 0.84375q0.375 0.359375 0.9375 0.359375q0.625 0 1.203125 -0.421875q0.421875 -0.3125 0.5625 -0.765625q0.078125 -0.3125 0.078125 -1.140625l0 -0.46875zm8.824585 -4.578125l0 1.859375l-1.59375 0l0 3.546875q0 1.078125 0.046875 1.265625q0.046875 0.171875 0.203125 0.296875q0.15625 0.109375 0.390625 0.109375q0.328125 0 0.9375 -0.21875l0.203125 1.796875q-0.8125 0.359375 -1.84375 0.359375q-0.625 0 -1.140625 -0.203125q-0.5 -0.21875 -0.734375 -0.546875q-0.234375 -0.34375 -0.328125 -0.921875q-0.078125 -0.40625 -0.078125 -1.640625l0 -3.84375l-1.078125 0l0 -1.859375l1.078125 0l0 -1.75l2.34375 -1.359375l0 3.109375l1.59375 0zm6.8328857 6.0l2.328125 0.390625q-0.453125 1.28125 -1.421875 1.953125q-0.96875 0.671875 -2.421875 0.671875q-2.296875 0 -3.40625 -1.5q-0.859375 -1.203125 -0.859375 -3.046875q0 -2.1875 1.140625 -3.421875q1.140625 -1.25 2.890625 -1.25q1.96875 0 3.109375 1.296875q1.140625 1.296875 1.09375 3.984375l-5.84375 0q0.015625 1.03125 0.546875 1.609375q0.546875 0.578125 1.359375 0.578125q0.546875 0 0.921875 -0.296875q0.375 -0.296875 0.5625 -0.96875zm0.125 -2.34375q-0.015625 -1.015625 -0.515625 -1.546875q-0.5 -0.53125 -1.21875 -0.53125q-0.765625 0 -1.25 0.5625q-0.5 0.546875 -0.5 1.515625l3.484375 0zm9.248291 -7.015625l4.859375 0q1.4375 0 2.140625 0.125q0.71875 0.125 1.28125 0.5q0.5625 0.375 0.9375 1.015625q0.375 0.640625 0.375 1.421875q0 0.859375 -0.46875 1.578125q-0.453125 0.703125 -1.25 1.0625q1.125 0.328125 1.71875 1.109375q0.59375 0.78125 0.59375 1.828125q0 0.828125 -0.390625 1.625q-0.375 0.78125 -1.046875 1.25q-0.671875 0.46875 -1.65625 0.578125q-0.609375 0.0625 -2.953125 0.078125l-4.140625 0l0 -12.171875zm2.453125 2.03125l0 2.8125l1.609375 0q1.4375 0 1.78125 -0.046875q0.640625 -0.078125 1.0 -0.4375q0.359375 -0.359375 0.359375 -0.9375q0 -0.578125 -0.3125 -0.921875q-0.3125 -0.359375 -0.921875 -0.4375q-0.375 -0.03125 -2.109375 -0.03125l-1.40625 0zm0 4.84375l0 3.25l2.28125 0q1.328125 0 1.671875 -0.078125q0.546875 -0.09375 0.890625 -0.484375q0.359375 -0.390625 0.359375 -1.03125q0 -0.546875 -0.265625 -0.921875q-0.265625 -0.390625 -0.78125 -0.5625q-0.5 -0.171875 -2.171875 -0.171875l-1.984375 0zm15.826355 5.296875l0 -1.3125q-0.46875 0.703125 -1.265625 1.109375q-0.78125 0.40625 -1.65625 0.40625q-0.875 0 -1.59375 -0.390625q-0.703125 -0.390625 -1.015625 -1.09375q-0.3125 -0.71875 -0.3125 -1.953125l0 -5.578125l2.328125 0l0 4.046875q0 1.859375 0.125 2.28125q0.140625 0.421875 0.46875 0.671875q0.34375 0.234375 0.875 0.234375q0.59375 0 1.0625 -0.328125q0.484375 -0.328125 0.65625 -0.8125q0.171875 -0.484375 0.171875 -2.375l0 -3.71875l2.328125 0l0 8.8125l-2.171875 0zm3.7722168 -8.8125l1.296875 0l0 -0.671875q0 -1.109375 0.234375 -1.65625q0.234375 -0.546875 0.859375 -0.890625q0.640625 -0.34375 1.609375 -0.34375q1.0 0 1.953125 0.296875l-0.3125 1.625q-0.5625 -0.125 -1.078125 -0.125q-0.5 0 -0.71875 0.234375q-0.21875 0.234375 -0.21875 0.90625l0 0.625l1.734375 0l0 1.828125l-1.734375 0l0 6.984375l-2.328125 0l0 -6.984375l-1.296875 0l0 -1.828125zm5.7703857 0l1.296875 0l0 -0.671875q0 -1.109375 0.234375 -1.65625q0.234375 -0.546875 0.859375 -0.890625q0.640625 -0.34375 1.609375 -0.34375q1.0 0 1.953125 0.296875l-0.3125 1.625q-0.5625 -0.125 -1.078125 -0.125q-0.5 0 -0.71875 0.234375q-0.21875 0.234375 -0.21875 0.90625l0 0.625l1.734375 0l0 1.828125l-1.734375 0l0 6.984375l-2.328125 0l0 -6.984375l-1.296875 0l0 -1.828125zm11.895386 6.0l2.328125 0.390625q-0.453125 1.28125 -1.421875 1.953125q-0.96875 0.671875 -2.421875 0.671875q-2.296875 0 -3.40625 -1.5q-0.859375 -1.203125 -0.859375 -3.046875q0 -2.1875 1.140625 -3.421875q1.140625 -1.25 2.890625 -1.25q1.96875 0 3.109375 1.296875q1.140625 1.296875 1.09375 3.984375l-5.84375 0q0.015625 1.03125 0.546875 1.609375q0.546875 0.578125 1.359375 0.578125q0.546875 0 0.921875 -0.296875q0.375 -0.296875 0.5625 -0.96875zm0.125 -2.34375q-0.015625 -1.015625 -0.515625 -1.546875q-0.5 -0.53125 -1.21875 -0.53125q-0.765625 0 -1.25 0.5625q-0.5 0.546875 -0.5 1.515625l3.484375 0zm6.637085 5.15625l-2.328125 0l0 -8.8125l2.15625 0l0 1.25q0.5625 -0.890625 1.0 -1.171875q0.453125 -0.28125 1.015625 -0.28125q0.796875 0 1.53125 0.4375l-0.71875 2.03125q-0.59375 -0.375 -1.09375 -0.375q-0.484375 0 -0.828125 0.265625q-0.34375 0.265625 -0.546875 0.984375q-0.1875 0.703125 -0.1875 2.953125l0 2.71875z" fill-rule="nonzero"></path><path fill="#000000" fill-opacity="0.0" d="m465.6404 238.2664l143.08664 0l0 38.267715l-143.08664 0z" fill-rule="nonzero"></path><path fill="#0000ff" d="m476.75867 261.3464l0 -10.734375l3.25 0l1.9375 7.328125l1.9375 -7.328125l3.25 0l0 10.734375l-2.015625 0l0 -8.453125l-2.140625 8.453125l-2.078125 0l-2.125 -8.453125l0 8.453125l-2.015625 0zm11.740021 -4.0q0 -1.03125 0.5 -1.984375q0.515625 -0.953125 1.4375 -1.453125q0.9375 -0.515625 2.078125 -0.515625q1.765625 0 2.890625 1.15625q1.125 1.140625 1.125 2.890625q0 1.765625 -1.140625 2.921875q-1.140625 1.15625 -2.859375 1.15625q-1.078125 0 -2.046875 -0.484375q-0.96875 -0.484375 -1.484375 -1.40625q-0.5 -0.9375 -0.5 -2.28125zm2.109375 0.109375q0 1.15625 0.546875 1.78125q0.5625 0.609375 1.359375 0.609375q0.8125 0 1.359375 -0.609375q0.546875 -0.625 0.546875 -1.796875q0 -1.140625 -0.546875 -1.75q-0.546875 -0.625 -1.359375 -0.625q-0.796875 0 -1.359375 0.625q-0.546875 0.609375 -0.546875 1.765625zm9.468262 3.890625l-3.140625 -7.78125l2.15625 0l1.46875 3.96875l0.421875 1.328125q0.171875 -0.5 0.21875 -0.671875q0.109375 -0.328125 0.21875 -0.65625l1.484375 -3.96875l2.109375 0l-3.09375 7.78125l-1.84375 0zm6.0104675 -8.828125l0 -1.90625l2.0625 0l0 1.90625l-2.0625 0zm0 8.828125l0 -7.78125l2.0625 0l0 7.78125l-2.0625 0zm11.150085 0l-2.0625 0l0 -3.96875q0 -1.265625 -0.140625 -1.625q-0.125 -0.375 -0.421875 -0.578125q-0.296875 -0.203125 -0.71875 -0.203125q-0.53125 0 -0.953125 0.296875q-0.421875 0.28125 -0.578125 0.765625q-0.15625 0.484375 -0.15625 1.796875l0 3.515625l-2.0624695 0l0 -7.78125l1.9062195 0l0 1.140625q1.015625 -1.3125 2.5625 -1.3125q0.6875 0 1.25 0.25q0.5625 0.234375 0.84375 0.625q0.296875 0.375 0.40625 0.859375q0.125 0.484375 0.125 1.390625l0 4.828125zm1.6870117 0.515625l2.34375 0.28125q0.0625 0.40625 0.28125 0.5625q0.28125 0.21875 0.921875 0.21875q0.796875 0 1.203125 -0.234375q0.265625 -0.171875 0.40625 -0.515625q0.09375 -0.265625 0.09375 -0.953125l0 -1.140625q-0.921875 1.265625 -2.328125 1.265625q-1.5625 0 -2.484375 -1.328125q-0.71875 -1.046875 -0.71875 -2.609375q0 -1.953125 0.9375 -2.984375q0.953125 -1.03125 2.34375 -1.03125q1.453125 0 2.390625 1.265625l0 -1.09375l1.921875 0l0 6.984375q0 1.375 -0.234375 2.046875q-0.21875 0.6875 -0.640625 1.078125q-0.40625 0.390625 -1.09375 0.609375q-0.671875 0.21875 -1.71875 0.21875q-1.984375 0 -2.8125 -0.6875q-0.828125 -0.671875 -0.828125 -1.703125q0 -0.109375 0.015625 -0.25zm1.828125 -4.5625q0 1.234375 0.484375 1.8125q0.484375 0.578125 1.1875 0.578125q0.75 0 1.265625 -0.59375q0.53125 -0.59375 0.53125 -1.75q0 -1.203125 -0.5 -1.78125q-0.5 -0.59375 -1.265625 -0.59375q-0.734375 0 -1.21875 0.578125q-0.484375 0.5625 -0.484375 1.75zm11.290222 4.046875l0 -10.734375l2.0625 0l0 3.859375q0.953125 -1.078125 2.25 -1.078125q1.421875 0 2.34375 1.03125q0.9375 1.03125 0.9375 2.953125q0 1.984375 -0.953125 3.0625q-0.9375 1.078125 -2.296875 1.078125q-0.65625 0 -1.3125 -0.328125q-0.640625 -0.328125 -1.109375 -0.984375l0 1.140625l-1.921875 0zm2.046875 -4.0625q0 1.21875 0.375 1.796875q0.546875 0.8125 1.421875 0.8125q0.6875 0 1.15625 -0.578125q0.484375 -0.578125 0.484375 -1.84375q0 -1.328125 -0.484375 -1.90625q-0.46875 -0.59375 -1.234375 -0.59375q-0.734375 0 -1.234375 0.578125q-0.484375 0.5625 -0.484375 1.734375zm8.530762 -1.34375l-1.859375 -0.34375q0.3125 -1.125 1.078125 -1.65625q0.765625 -0.546875 2.28125 -0.546875q1.390625 0 2.0625 0.328125q0.671875 0.328125 0.9375 0.828125q0.28125 0.5 0.28125 1.84375l-0.015625 2.390625q0 1.03125 0.09375 1.515625q0.09375 0.484375 0.375 1.046875l-2.046875 0q-0.078125 -0.203125 -0.1875 -0.609375q-0.0625 -0.1875 -0.078125 -0.234375q-0.53125 0.5 -1.140625 0.765625q-0.59375 0.25 -1.265625 0.25q-1.203125 0 -1.90625 -0.640625q-0.6875 -0.65625 -0.6875 -1.65625q0 -0.65625 0.3125 -1.171875q0.328125 -0.515625 0.890625 -0.78125q0.5625 -0.28125 1.640625 -0.5q1.4375 -0.265625 2.0 -0.5l0 -0.203125q0 -0.59375 -0.296875 -0.84375q-0.296875 -0.25 -1.109375 -0.25q-0.546875 0 -0.859375 0.21875q-0.296875 0.203125 -0.5 0.75zm2.765625 1.671875q-0.40625 0.125 -1.265625 0.3125q-0.84375 0.1875 -1.109375 0.359375q-0.40625 0.28125 -0.40625 0.71875q0 0.4375 0.3125 0.75q0.328125 0.3125 0.828125 0.3125q0.5625 0 1.0625 -0.359375q0.375 -0.28125 0.484375 -0.6875q0.09375 -0.25 0.09375 -1.0l0 -0.40625zm10.635498 -1.75l-2.03125 0.375q-0.09375 -0.609375 -0.46875 -0.90625q-0.359375 -0.3125 -0.9375 -0.3125q-0.765625 0 -1.234375 0.53125q-0.453125 0.515625 -0.453125 1.765625q0 1.390625 0.46875 1.96875q0.46875 0.5625 1.25 0.5625q0.59375 0 0.953125 -0.328125q0.375 -0.34375 0.53125 -1.15625l2.03125 0.34375q-0.328125 1.390625 -1.21875 2.109375q-0.890625 0.703125 -2.390625 0.703125q-1.703125 0 -2.71875 -1.078125q-1.015625 -1.078125 -1.015625 -2.96875q0 -1.9375 1.015625 -3.0q1.015625 -1.078125 2.75 -1.078125q1.421875 0 2.265625 0.609375q0.84375 0.609375 1.203125 1.859375zm1.291687 5.484375l0 -10.734375l2.0625 0l0 5.6875l2.40625 -2.734375l2.53125 0l-2.65625 2.84375l2.859375 4.9375l-2.21875 0l-1.96875 -3.5l-0.953125 1.015625l0 2.484375l-2.0625 0zm9.682373 0l-2.46875 -7.78125l2.0 0l1.453125 5.09375l1.34375 -5.09375l1.984375 0l1.296875 5.09375l1.484375 -5.09375l2.03125 0l-2.5 7.78125l-1.96875 0l-1.34375 -5.0l-1.3125 5.0l-2.0 0zm11.47821 -5.40625l-1.859375 -0.34375q0.3125 -1.125 1.078125 -1.65625q0.765625 -0.546875 2.28125 -0.546875q1.390625 0 2.0625 0.328125q0.671875 0.328125 0.9375 0.828125q0.28125 0.5 0.28125 1.84375l-0.015625 2.390625q0 1.03125 0.09375 1.515625q0.09375 0.484375 0.375 1.046875l-2.046875 0q-0.078125 -0.203125 -0.1875 -0.609375q-0.0625 -0.1875 -0.078125 -0.234375q-0.53125 0.5 -1.140625 0.765625q-0.59375 0.25 -1.265625 0.25q-1.203125 0 -1.90625 -0.640625q-0.6875 -0.65625 -0.6875 -1.65625q0 -0.65625 0.3125 -1.171875q0.328125 -0.515625 0.890625 -0.78125q0.5625 -0.28125 1.640625 -0.5q1.4375 -0.265625 2.0 -0.5l0 -0.203125q0 -0.59375 -0.296875 -0.84375q-0.296875 -0.25 -1.109375 -0.25q-0.546875 0 -0.859375 0.21875q-0.296875 0.203125 -0.5 0.75zm2.765625 1.671875q-0.40625 0.125 -1.265625 0.3125q-0.84375 0.1875 -1.109375 0.359375q-0.40625 0.28125 -0.40625 0.71875q0 0.4375 0.3125 0.75q0.328125 0.3125 0.828125 0.3125q0.5625 0 1.0625 -0.359375q0.375 -0.28125 0.484375 -0.6875q0.09375 -0.25 0.09375 -1.0l0 -0.40625zm5.822998 3.734375l-2.0625 0l0 -7.78125l1.921875 0l0 1.109375q0.484375 -0.78125 0.875 -1.03125q0.390625 -0.25 0.890625 -0.25q0.703125 0 1.359375 0.390625l-0.640625 1.796875q-0.515625 -0.34375 -0.96875 -0.34375q-0.4375 0 -0.734375 0.25q-0.296875 0.234375 -0.46875 0.859375q-0.171875 0.609375 -0.171875 2.59375l0 2.40625zm10.859863 0l-1.90625 0l0 -1.140625q-0.46875 0.671875 -1.125 1.0q-0.640625 0.3125 -1.296875 0.3125q-1.34375 0 -2.3125 -1.078125q-0.953125 -1.078125 -0.953125 -3.015625q0 -1.96875 0.921875 -3.0q0.9375 -1.03125 2.359375 -1.03125q1.3125 0 2.265625 1.078125l0 -3.859375l2.046875 0l0 10.734375zm-5.484375 -4.0625q0 1.25 0.34375 1.8125q0.5 0.796875 1.390625 0.796875q0.703125 0 1.203125 -0.59375q0.5 -0.609375 0.5 -1.8125q0 -1.34375 -0.484375 -1.921875q-0.484375 -0.59375 -1.234375 -0.59375q-0.734375 0 -1.234375 0.578125q-0.484375 0.578125 -0.484375 1.734375z" fill-rule="nonzero"></path><path fill="#000000" fill-opacity="0.0" d="m255.2231 32.834644l56.063004 0l0 38.26772l-56.063004 0z" fill-rule="nonzero"></path><path fill="#0000ff" d="m287.88934 64.87465l-3.1562195 0l-0.609375 -7.921879l-3.796875 7.921879l-3.125 0l-1.5625 -12.453129l3.0 0l0.859375 8.34375l3.875 -8.34375l3.0625 0l0.421875 8.34375l3.8593445 -8.34375l3.375 0l-6.203125 12.453129z" fill-rule="nonzero"></path><path fill="#000000" fill-opacity="0.0" d="m566.0656 286.2874c-14.440918 0 -21.661438 0.01574707 -28.881897 0.03149414c-7.220459 0.01574707 -14.440918 0.03149414 -28.881866 0.03149414" fill-rule="nonzero"></path><path stroke="#0000ff" stroke-width="2.0" stroke-linejoin="round" stroke-linecap="butt" d="m566.0656 286.2874c-14.440918 0 -21.661438 0.01574707 -28.881897 0.03149414c-3.6102295 0.007873535 -7.220459 0.01574707 -11.733276 0.021636963c-2.2563477 0.002960205 -4.7384033 0.005432129 -7.558899 0.0071411133l-2.7355347 7.9345703E-4" fill-rule="evenodd"></path><path fill="#0000ff" stroke="#0000ff" stroke-width="2.0" stroke-linecap="butt" d="m515.156 286.34845l2.2485352 -2.2497864l-6.178894 2.2509155l6.180176 2.247406z" fill-rule="evenodd"></path><path fill="#000000" fill-opacity="0.0" d="m250.02625 21.45407l1.6378021 107.55905" fill-rule="nonzero"></path><path stroke="#0000ff" stroke-width="4.0" stroke-linejoin="round" stroke-linecap="butt" d="m250.02625 21.45407l1.2723999 83.56183" fill-rule="evenodd"></path><path fill="#0000ff" stroke="#0000ff" stroke-width="4.0" stroke-linecap="butt" d="m244.69247 105.1165l6.882538 18.04969l6.3298035 -18.250877z" fill-rule="evenodd"></path><path fill="#000000" fill-opacity="0.0" d="m15.979003 126.27559l157.16536 0l0 38.267715l-157.16536 0z" fill-rule="nonzero"></path><path fill="#666666" d="m55.401527 158.3156l-3.15625 0l-0.609375 -7.921875l-3.796875 7.921875l-3.125 0l-1.5625 -12.453125l3.0 0l0.859375 8.34375l3.875 -8.34375l3.0625 0l0.421875 8.34375l3.859375 -8.34375l3.375 0l-6.203125 12.453125z" fill-rule="nonzero"></path><path fill="#666666" d="m72.53434 148.04997l0.890625 0q-0.6875 1.375 -1.046875 1.9375q-0.34375 0.5625 -1.234375 1.6875l18.6875 0l0 1.171875l-18.6875 0q1.21875 1.265625 2.3125 3.625l-0.90625 0q-1.515625 -1.6875 -2.609375 -2.5625q-1.078125 -0.875 -2.25 -1.4375l0 -0.515625q1.03125 -0.4375 2.15625 -1.328125q1.140625 -0.890625 2.6875 -2.578125zm28.949219 10.265625l-3.9375 -12.453125l3.203125 0l2.328125 8.15625l2.140625 -8.15625l3.171875 0l2.078125 8.15625l2.375 -8.15625l3.25 0l-4.0 12.453125l-3.15625 0l-2.140625 -8.0l-2.109375 8.0l-3.203125 0zm17.496094 -9.28125l-1.765625 -1.375q0.84375 -0.953125 1.75 -1.8125q0.359375 -0.359375 0.453125 -0.453125q-0.28125 -0.046875 -1.671875 -0.375q-1.0 -0.25 -1.3125 -0.375l0.6875 -2.0625q1.546875 0.625 2.75 1.375q-0.28125 -1.90625 -0.28125 -3.109375l2.078125 0q0 0.84375 -0.3125 3.140625q0.234375 -0.09375 1.015625 -0.46875q1.046875 -0.46875 1.9375 -0.8125l0.625 2.125q-1.296875 0.28125 -3.015625 0.5625l1.40625 1.59375q0.421875 0.46875 0.671875 0.78125l-1.796875 1.1875l-1.578125 -2.625q-0.71875 1.265625 -1.640625 2.703125zm18.605461 6.21875l0 3.0625l-11.546867 0q0.1875 -1.734375 1.125 -3.28125q0.9374924 -1.5625 3.7031174 -4.125q2.234375 -2.078125 2.734375 -2.8125q0.6875 -1.015625 0.6875 -2.015625q0 -1.109375 -0.59375 -1.6875q-0.59375 -0.59375 -1.640625 -0.59375q-1.03125 0 -1.640625 0.625q-0.609375 0.609375 -0.703125 2.046875l-3.2812424 -0.328125q0.296875 -2.71875 1.8437424 -3.890625q1.546875 -1.1875 3.859375 -1.1875q2.546875 0 4.0 1.375q1.453125 1.359375 1.453125 3.40625q0 1.15625 -0.421875 2.203125q-0.40625 1.046875 -1.3125 2.203125q-0.59375 0.765625 -2.15625 2.203125q-1.5625 1.421875 -1.984375 1.890625q-0.40625 0.46875 -0.65625 0.90625l6.53125 0z" fill-rule="nonzero"></path><path fill="#666666" d="m139.40152 146.26872l2.125 -0.25q0.09375 0.8125 0.53125 1.25q0.453125 0.421875 1.09375 0.421875q0.671875 0 1.140625 -0.515625q0.46875 -0.515625 0.46875 -1.390625q0 -0.828125 -0.453125 -1.3125q-0.4375 -0.484375 -1.078125 -0.484375q-0.421875 0 -1.015625 0.15625l0.25 -1.78125q0.890625 0.015625 1.359375 -0.390625q0.46875 -0.40625 0.46875 -1.09375q0 -0.578125 -0.34375 -0.921875q-0.34375 -0.34375 -0.921875 -0.34375q-0.5625 0 -0.96875 0.390625q-0.390625 0.390625 -0.46875 1.140625l-2.03125 -0.34375q0.21875 -1.03125 0.640625 -1.65625q0.421875 -0.625 1.1875 -0.96875q0.765625 -0.359375 1.703125 -0.359375q1.625 0 2.59375 1.03125q0.8125 0.84375 0.8125 1.90625q0 1.5 -1.65625 2.40625q0.984375 0.203125 1.578125 0.9375q0.59375 0.734375 0.59375 1.78125q0 1.5 -1.109375 2.578125q-1.09375 1.0625 -2.734375 1.0625q-1.5625 0 -2.59375 -0.890625q-1.015625 -0.90625 -1.171875 -2.359375z" fill-rule="nonzero"></path><path fill="#efefef" d="m181.14436 273.9895l136.88188 0l0 122.26773l-136.88188 0z" fill-rule="nonzero"></path><path stroke="#666666" stroke-width="4.0" stroke-linejoin="round" stroke-linecap="butt" stroke-dasharray="16.0,12.0" d="m181.14436 273.9895l136.88188 0l0 122.26773l-136.88188 0z" fill-rule="nonzero"></path><path fill="#cfe2f3" d="m221.5538 339.7743l0 0c0 -16.133698 12.550125 -29.212616 28.031494 -29.212616l0 0c7.4344177 0 14.564331 3.0777588 19.821259 8.556183c5.2569275 5.478424 8.210236 12.908752 8.210236 20.656433l0 0c0 16.133667 -12.55011 29.212585 -28.031494 29.212585l0 0c-15.481369 0 -28.031494 -13.078918 -28.031494 -29.212585z" fill-rule="nonzero"></path><path fill="#000000" fill-opacity="0.0" d="m249.5853 310.56168l0 58.4252m-28.031494 -29.212585l56.06299 0" fill-rule="nonzero"></path><path fill="#000000" fill-opacity="0.0" d="m221.5538 339.7743l0 0c0 -16.133698 12.550125 -29.212616 28.031494 -29.212616l0 0c7.4344177 0 14.564331 3.0777588 19.821259 8.556183c5.2569275 5.478424 8.210236 12.908752 8.210236 20.656433l0 0c0 16.133667 -12.55011 29.212585 -28.031494 29.212585l0 0c-15.481369 0 -28.031494 -13.078918 -28.031494 -29.212585z" fill-rule="nonzero"></path><path stroke="#674ea7" stroke-width="4.0" stroke-linejoin="round" stroke-linecap="butt" d="m249.5853 310.56168l0 58.4252m-28.031494 -29.212585l56.06299 0" fill-rule="nonzero"></path><path stroke="#674ea7" stroke-width="4.0" stroke-linejoin="round" stroke-linecap="butt" d="m221.5538 339.7743l0 0c0 -16.133698 12.550125 -29.212616 28.031494 -29.212616l0 0c7.4344177 0 14.564331 3.0777588 19.821259 8.556183c5.2569275 5.478424 8.210236 12.908752 8.210236 20.656433l0 0c0 16.133667 -12.55011 29.212585 -28.031494 29.212585l0 0c-15.481369 0 -28.031494 -13.078918 -28.031494 -29.212585z" fill-rule="nonzero"></path><path fill="#d0e0e3" d="m411.1811 91.72966l157.16534 0l0 65.82677l-157.16534 0z" fill-rule="nonzero"></path><path stroke="#4a86e8" stroke-width="4.0" stroke-linejoin="round" stroke-linecap="butt" d="m411.1811 91.72966l157.16534 0l0 65.82677l-157.16534 0z" fill-rule="nonzero"></path><path fill="#000000" fill-opacity="0.0" d="m451.62466 93.69554l0 65.82677" fill-rule="nonzero"></path><path stroke="#4a86e8" stroke-width="2.0" stroke-linejoin="round" stroke-linecap="butt" d="m451.62466 93.69554l0 65.82677" fill-rule="nonzero"></path><path fill="#000000" fill-opacity="0.0" d="m567.0 126.656166l-155.81104 -0.09449005" fill-rule="nonzero"></path><path stroke="#4a86e8" stroke-width="2.0" stroke-linejoin="round" stroke-linecap="butt" d="m567.0 126.656166l-155.81104 -0.09449005" fill-rule="nonzero"></path><path fill="#000000" fill-opacity="0.0" d="m489.09448 91.72966l0 65.82677" fill-rule="nonzero"></path><path stroke="#4a86e8" stroke-width="2.0" stroke-linejoin="round" stroke-linecap="butt" d="m489.09448 91.72966l0 65.82677" fill-rule="nonzero"></path><path fill="#000000" fill-opacity="0.0" d="m526.56433 93.69554l0 65.82677" fill-rule="nonzero"></path><path stroke="#4a86e8" stroke-width="2.0" stroke-linejoin="round" stroke-linecap="butt" d="m526.56433 93.69554l0 65.82677" fill-rule="nonzero"></path><path fill="#000000" fill-opacity="0.0" d="m477.65616 107.13386l0 0c0 -18.177559 14.05191 -32.913383 31.385834 -32.913383l0 0c8.324036 0 16.307129 3.4676514 22.193115 9.640106c5.8859863 6.172455 9.192688 14.544106 9.192688 23.273277l0 0c0 18.177567 -14.05188 32.913383 -31.385803 32.913383l0 0c-17.333923 0 -31.385834 -14.735817 -31.385834 -32.913383z" fill-rule="nonzero"></path><path stroke="#ff9900" stroke-width="4.0" stroke-linejoin="round" stroke-linecap="butt" d="m477.65616 107.13386l0 0c0 -18.177559 14.05191 -32.913383 31.385834 -32.913383l0 0c8.324036 0 16.307129 3.4676514 22.193115 9.640106c5.8859863 6.172455 9.192688 14.544106 9.192688 23.273277l0 0c0 18.177567 -14.05188 32.913383 -31.385803 32.913383l0 0c-17.333923 0 -31.385834 -14.735817 -31.385834 -32.913383z" fill-rule="nonzero"></path><path fill="#000000" fill-opacity="0.0" d="m411.18896 31.28084l169.38586 0l0 38.267715l-169.38586 0z" fill-rule="nonzero"></path><path fill="#ff9900" d="m434.2415 56.920837l0 -10.734375l3.484375 0q1.96875 0 2.578125 0.15625q0.921875 0.25 1.53125 1.0625q0.625 0.796875 0.625 2.078125q0 0.984375 -0.359375 1.671875q-0.359375 0.671875 -0.90625 1.0625q-0.546875 0.375 -1.125 0.5q-0.78125 0.15625 -2.25 0.15625l-1.40625 0l0 4.046875l-2.171875 0zm2.171875 -8.921875l0 3.046875l1.1875 0q1.28125 0 1.703125 -0.171875q0.4375 -0.171875 0.671875 -0.515625q0.25 -0.359375 0.25 -0.84375q0 -0.578125 -0.34375 -0.953125q-0.34375 -0.390625 -0.875 -0.484375q-0.375 -0.078125 -1.546875 -0.078125l-1.046875 0zm7.1037292 4.921875q0 -1.03125 0.5 -1.984375q0.515625 -0.953125 1.4375 -1.453125q0.9375 -0.515625 2.078125 -0.515625q1.765625 0 2.890625 1.15625q1.125 1.140625 1.125 2.890625q0 1.765625 -1.140625 2.921875q-1.140625 1.15625 -2.859375 1.15625q-1.078125 0 -2.046875 -0.484375q-0.96875 -0.484375 -1.484375 -1.40625q-0.5 -0.9375 -0.5 -2.28125zm2.109375 0.109375q0 1.15625 0.546875 1.78125q0.5625 0.609375 1.359375 0.609375q0.8125 0 1.359375 -0.609375q0.546875 -0.625 0.546875 -1.796875q0 -1.140625 -0.546875 -1.75q-0.546875 -0.625 -1.359375 -0.625q-0.796875 0 -1.359375 0.625q-0.546875 0.609375 -0.546875 1.765625zm6.608856 1.671875l2.0625 -0.3125q0.125 0.59375 0.53125 0.90625q0.40625 0.3125 1.125 0.3125q0.796875 0 1.203125 -0.296875q0.265625 -0.203125 0.265625 -0.546875q0 -0.234375 -0.140625 -0.390625q-0.15625 -0.140625 -0.6875 -0.265625q-2.484375 -0.546875 -3.15625 -1.0q-0.921875 -0.640625 -0.921875 -1.75q0 -1.015625 0.796875 -1.703125q0.796875 -0.6875 2.46875 -0.6875q1.609375 0 2.375 0.515625q0.78125 0.515625 1.078125 1.546875l-1.953125 0.359375q-0.125 -0.453125 -0.46875 -0.6875q-0.34375 -0.25 -0.984375 -0.25q-0.8125 0 -1.171875 0.21875q-0.234375 0.15625 -0.234375 0.421875q0 0.21875 0.203125 0.375q0.28125 0.203125 1.921875 0.578125q1.65625 0.375 2.296875 0.90625q0.65625 0.5625 0.65625 1.53125q0 1.078125 -0.90625 1.84375q-0.890625 0.765625 -2.640625 0.765625q-1.59375 0 -2.515625 -0.640625q-0.921875 -0.640625 -1.203125 -1.75zm8.869873 -6.609375l0 -1.90625l2.0625 0l0 1.90625l-2.0625 0zm0 8.828125l0 -7.78125l2.0625 0l0 7.78125l-2.0625 0zm7.6344604 -7.78125l0 1.640625l-1.40625 0l0 3.140625q0 0.953125 0.03125 1.109375q0.046875 0.15625 0.1875 0.265625q0.15625 0.09375 0.359375 0.09375q0.28125 0 0.828125 -0.203125l0.171875 1.609375q-0.71875 0.296875 -1.625 0.296875q-0.5625 0 -1.015625 -0.1875q-0.4375 -0.1875 -0.65625 -0.484375q-0.203125 -0.296875 -0.28125 -0.796875q-0.0625 -0.359375 -0.0625 -1.453125l0 -3.390625l-0.9375 0l0 -1.640625l0.9375 0l0 -1.546875l2.0625 -1.203125l0 2.75l1.40625 0zm1.3181458 -1.046875l0 -1.90625l2.0625 0l0 1.90625l-2.0625 0zm0 8.828125l0 -7.78125l2.0625 0l0 7.78125l-2.0625 0zm3.587616 -4.0q0 -1.03125 0.5 -1.984375q0.515625 -0.953125 1.4375 -1.453125q0.9375 -0.515625 2.078125 -0.515625q1.765625 0 2.890625 1.15625q1.125 1.140625 1.125 2.890625q0 1.765625 -1.140625 2.921875q-1.140625 1.15625 -2.859375 1.15625q-1.078125 0 -2.046875 -0.484375q-0.96875 -0.484375 -1.484375 -1.40625q-0.5 -0.9375 -0.5 -2.28125zm2.109375 0.109375q0 1.15625 0.546875 1.78125q0.5625 0.609375 1.359375 0.609375q0.8125 0 1.359375 -0.609375q0.546875 -0.625 0.546875 -1.796875q0 -1.140625 -0.546875 -1.75q-0.546875 -0.625 -1.359375 -0.625q-0.796875 0 -1.359375 0.625q-0.546875 0.609375 -0.546875 1.765625zm14.405731 3.890625l-2.0625 0l0 -3.96875q0 -1.265625 -0.140625 -1.625q-0.125 -0.375 -0.421875 -0.578125q-0.296875 -0.203125 -0.71875 -0.203125q-0.53125 0 -0.953125 0.296875q-0.421875 0.28125 -0.578125 0.765625q-0.15625 0.484375 -0.15625 1.796875l0 3.515625l-2.0625 0l0 -7.78125l1.90625 0l0 1.140625q1.015625 -1.3125 2.5625 -1.3125q0.6875 0 1.25 0.25q0.5625 0.234375 0.84375 0.625q0.296875 0.375 0.40625 0.859375q0.125 0.484375 0.125 1.390625l0 4.828125z" fill-rule="nonzero"></path><path fill="#ff9900" d="m507.2945 56.920837l-2.53125 0l-0.265625 -8.90625l-4.4375 8.90625l-2.578125 0l-0.453125 -12.171875l2.4375 0l0.109375 8.515625l4.171875 -8.515625l2.71875 0l0.28125 8.421875l4.015625 -8.421875l2.421875 0l-5.890625 12.171875z" fill-rule="nonzero"></path><path fill="#ff9900" d="m516.37787 49.139587l1.890625 0l0 1.0625q1.03125 -1.234375 2.4375 -1.234375q0.734375 0 1.28125 0.3125q0.5625 0.296875 0.90625 0.921875q0.515625 -0.625 1.109375 -0.921875q0.59375 -0.3125 1.265625 -0.3125q0.859375 0 1.453125 0.34375q0.59375 0.34375 0.890625 1.03125q0.203125 0.484375 0.203125 1.609375l0 4.96875l-2.046875 0l0 -4.453125q0 -1.15625 -0.21875 -1.484375q-0.28125 -0.4375 -0.875 -0.4375q-0.4375 0 -0.828125 0.265625q-0.375 0.25 -0.546875 0.765625q-0.15625 0.515625 -0.15625 1.609375l0 3.734375l-2.0625 0l0 -4.265625q0 -1.125 -0.109375 -1.453125q-0.109375 -0.34375 -0.34375 -0.5q-0.234375 -0.15625 -0.625 -0.15625q-0.46875 0 -0.859375 0.265625q-0.375 0.25 -0.546875 0.734375q-0.15625 0.46875 -0.15625 1.59375l0 3.78125l-2.0625 0l0 -7.78125zm12.703613 3.78125q0 -1.03125 0.5 -1.984375q0.515625 -0.953125 1.4375 -1.453125q0.9375 -0.515625 2.078125 -0.515625q1.765625 0 2.890625 1.15625q1.125 1.140625 1.125 2.890625q0 1.765625 -1.140625 2.921875q-1.140625 1.15625 -2.859375 1.15625q-1.078125 0 -2.046875 -0.484375q-0.96875 -0.484375 -1.484375 -1.40625q-0.5 -0.9375 -0.5 -2.28125zm2.109375 0.109375q0 1.15625 0.546875 1.78125q0.5625 0.609375 1.359375 0.609375q0.8125 0 1.359375 -0.609375q0.546875 -0.625 0.546875 -1.796875q0 -1.140625 -0.546875 -1.75q-0.546875 -0.625 -1.359375 -0.625q-0.796875 0 -1.359375 0.625q-0.546875 0.609375 -0.546875 1.765625zm14.452637 3.890625l-1.90625 0l0 -1.140625q-0.46875 0.671875 -1.125 1.0q-0.640625 0.3125 -1.296875 0.3125q-1.34375 0 -2.3125 -1.078125q-0.953125 -1.078125 -0.953125 -3.015625q0 -1.96875 0.921875 -3.0q0.9375 -1.03125 2.359375 -1.03125q1.3125 0 2.265625 1.078125l0 -3.859375l2.046875 0l0 10.734375zm-5.484375 -4.0625q0 1.25 0.34375 1.8125q0.5 0.796875 1.390625 0.796875q0.703125 0 1.203125 -0.59375q0.5 -0.609375 0.5 -1.8125q0 -1.34375 -0.484375 -1.921875q-0.484375 -0.59375 -1.234375 -0.59375q-0.734375 0 -1.234375 0.578125q-0.484375 0.578125 -0.484375 1.734375zm12.712097 -1.734375q-0.796875 -0.328125 -1.171875 -0.921875q-0.359375 -0.59375 -0.359375 -1.296875q0 -1.203125 0.84375 -1.984375q0.84375 -0.78125 2.390625 -0.78125q1.515625 0 2.359375 0.78125q0.859375 0.78125 0.859375 1.984375q0 0.75 -0.390625 1.34375q-0.390625 0.578125 -1.09375 0.875q0.890625 0.359375 1.359375 1.046875q0.46875 0.6875 0.46875 1.59375q0 1.484375 -0.953125 2.421875q-0.953125 0.921875 -2.515625 0.921875q-1.46875 0 -2.4375 -0.765625q-1.15625 -0.90625 -1.15625 -2.484375q0 -0.875 0.421875 -1.59375q0.4375 -0.734375 1.375 -1.140625zm0.421875 -2.0625q0 0.609375 0.34375 0.953125q0.34375 0.34375 0.9375 0.34375q0.578125 0 0.921875 -0.34375q0.359375 -0.359375 0.359375 -0.96875q0 -0.578125 -0.359375 -0.921875q-0.34375 -0.34375 -0.90625 -0.34375q-0.59375 0 -0.953125 0.359375q-0.34375 0.34375 -0.34375 0.921875zm-0.1875 4.59375q0 0.84375 0.4375 1.328125q0.4375 0.46875 1.078125 0.46875q0.640625 0 1.046875 -0.453125q0.421875 -0.453125 0.421875 -1.328125q0 -0.75 -0.421875 -1.203125q-0.421875 -0.46875 -1.078125 -0.46875q-0.75 0 -1.125 0.53125q-0.359375 0.515625 -0.359375 1.125z" fill-rule="nonzero"></path><path fill="#000000" fill-opacity="0.0" d="m590.7349 126.561676l136.8819 0l0 38.267715l-136.8819 0z" fill-rule="nonzero"></path><path fill="#4a86e8" d="m618.37317 152.20168l0 -10.109375l-3.609375 0l0 -2.0625l9.671875 0l0 2.0625l-3.59375 0l0 10.109375l-2.46875 0zm9.475342 0l-2.78125 -8.8125l2.265625 0l1.65625 5.78125l1.515625 -5.78125l2.25 0l1.46875 5.78125l1.6875 -5.78125l2.296875 0l-2.828125 8.8125l-2.25 0l-1.515625 -5.671875l-1.5 5.671875l-2.265625 0zm11.837769 -10.015625l0 -2.15625l2.328125 0l0 2.15625l-2.328125 0zm0 10.015625l0 -8.8125l2.328125 0l0 8.8125l-2.328125 0zm4.001831 -2.515625l2.328125 -0.359375q0.15625 0.6875 0.609375 1.046875q0.453125 0.34375 1.28125 0.34375q0.90625 0 1.359375 -0.328125q0.3125 -0.234375 0.3125 -0.625q0 -0.265625 -0.171875 -0.4375q-0.171875 -0.171875 -0.78125 -0.3125q-2.8125 -0.625 -3.578125 -1.140625q-1.046875 -0.703125 -1.046875 -1.984375q0 -1.140625 0.90625 -1.921875q0.90625 -0.78125 2.8125 -0.78125q1.8125 0 2.6875 0.59375q0.875 0.578125 1.203125 1.734375l-2.1875 0.40625q-0.140625 -0.515625 -0.546875 -0.78125q-0.390625 -0.28125 -1.125 -0.28125q-0.921875 0 -1.3125 0.265625q-0.265625 0.1875 -0.265625 0.46875q0 0.25 0.234375 0.421875q0.3125 0.234375 2.171875 0.65625q1.859375 0.421875 2.609375 1.046875q0.734375 0.609375 0.734375 1.734375q0 1.203125 -1.015625 2.078125q-1.015625 0.875 -3.0 0.875q-1.796875 0 -2.859375 -0.734375q-1.046875 -0.734375 -1.359375 -1.984375zm14.49646 -6.296875l0 1.859375l-1.59375 0l0 3.546875q0 1.078125 0.046875 1.265625q0.046875 0.171875 0.203125 0.296875q0.15625 0.109375 0.390625 0.109375q0.328125 0 0.9375 -0.21875l0.203125 1.796875q-0.8125 0.359375 -1.84375 0.359375q-0.625 0 -1.140625 -0.203125q-0.5 -0.21875 -0.734375 -0.546875q-0.234375 -0.34375 -0.328125 -0.921875q-0.078125 -0.40625 -0.078125 -1.640625l0 -3.84375l-1.078125 0l0 -1.859375l1.078125 0l0 -1.75l2.34375 -1.359375l0 3.109375l1.59375 0zm10.584717 0l0 1.859375l-1.59375 0l0 3.546875q0 1.078125 0.046875 1.265625q0.046875 0.171875 0.203125 0.296875q0.15625 0.109375 0.390625 0.109375q0.328125 0 0.9375 -0.21875l0.203125 1.796875q-0.8125 0.359375 -1.84375 0.359375q-0.625 0 -1.140625 -0.203125q-0.5 -0.21875 -0.734375 -0.546875q-0.234375 -0.34375 -0.328125 -0.921875q-0.078125 -0.40625 -0.078125 -1.640625l0 -3.84375l-1.078125 0l0 -1.859375l1.078125 0l0 -1.75l2.34375 -1.359375l0 3.109375l1.59375 0zm3.4735107 2.6875l-2.125 -0.390625q0.359375 -1.265625 1.234375 -1.875q0.875 -0.625 2.59375 -0.625q1.546875 0 2.3125 0.375q0.765625 0.359375 1.078125 0.9375q0.3125 0.5625 0.3125 2.078125l-0.03125 2.734375q0 1.15625 0.109375 1.71875q0.125 0.546875 0.421875 1.171875l-2.296875 0q-0.09375 -0.234375 -0.234375 -0.6875q-0.046875 -0.203125 -0.078125 -0.28125q-0.59375 0.59375 -1.28125 0.890625q-0.671875 0.28125 -1.453125 0.28125q-1.359375 0 -2.140625 -0.734375q-0.78125 -0.75 -0.78125 -1.875q0 -0.75 0.34375 -1.328125q0.359375 -0.59375 1.0 -0.90625q0.65625 -0.3125 1.859375 -0.546875q1.640625 -0.296875 2.265625 -0.5625l0 -0.234375q0 -0.671875 -0.328125 -0.953125q-0.328125 -0.296875 -1.25 -0.296875q-0.625 0 -0.984375 0.25q-0.34375 0.25 -0.546875 0.859375zm3.109375 1.890625q-0.4375 0.15625 -1.421875 0.359375q-0.96875 0.203125 -1.265625 0.40625q-0.453125 0.328125 -0.453125 0.828125q0 0.484375 0.359375 0.84375q0.375 0.359375 0.9375 0.359375q0.625 0 1.203125 -0.421875q0.421875 -0.3125 0.5625 -0.765625q0.078125 -0.3125 0.078125 -1.140625l0 -0.46875zm4.68396 4.234375l0 -12.171875l2.328125 0l0 4.390625q1.078125 -1.234375 2.5625 -1.234375q1.609375 0 2.65625 1.171875q1.0625 1.15625 1.0625 3.34375q0 2.265625 -1.078125 3.484375q-1.078125 1.21875 -2.609375 1.21875q-0.765625 0 -1.5 -0.375q-0.734375 -0.390625 -1.265625 -1.125l0 1.296875l-2.15625 0zm2.3125 -4.59375q0 1.359375 0.4375 2.015625q0.59375 0.9375 1.609375 0.9375q0.765625 0 1.3125 -0.65625q0.546875 -0.671875 0.546875 -2.09375q0 -1.5 -0.546875 -2.171875q-0.546875 -0.671875 -1.40625 -0.671875q-0.84375 0 -1.40625 0.65625q-0.546875 0.65625 -0.546875 1.984375zm8.365967 4.59375l0 -12.171875l2.328125 0l0 12.171875l-2.328125 0zm9.923706 -2.8125l2.328125 0.390625q-0.453125 1.28125 -1.421875 1.953125q-0.96875 0.671875 -2.421875 0.671875q-2.296875 0 -3.40625 -1.5q-0.859375 -1.203125 -0.859375 -3.046875q0 -2.1875 1.140625 -3.421875q1.140625 -1.25 2.890625 -1.25q1.96875 0 3.109375 1.296875q1.140625 1.296875 1.09375 3.984375l-5.84375 0q0.015625 1.03125 0.546875 1.609375q0.546875 0.578125 1.359375 0.578125q0.546875 0 0.921875 -0.296875q0.375 -0.296875 0.5625 -0.96875zm0.125 -2.34375q-0.015625 -1.015625 -0.515625 -1.546875q-0.5 -0.53125 -1.21875 -0.53125q-0.765625 0 -1.25 0.5625q-0.5 0.546875 -0.5 1.515625l3.484375 0z" fill-rule="nonzero"></path><path fill="#000000" fill-opacity="0.0" d="m587.0184 102.46719c36.078735 0 72.15747 12.047241 72.15747 24.094482" fill-rule="nonzero"></path><path stroke="#4a86e8" stroke-width="4.0" stroke-linejoin="round" stroke-linecap="butt" d="m600.7153 103.027855l0.59368896 0.04862213c0.2769165 0.023345947 0.5534668 0.047325134 0.829834 0.07192993c0.55255127 0.049224854 1.1038818 0.10096741 1.6538696 0.15519714c1.0999146 0.10845947 2.194336 0.22683716 3.2821655 0.3547821c2.1756592 0.25588226 4.324829 0.5500107 6.438843 0.87942505c8.455994 1.3176651 16.348206 3.2000504 23.112976 5.458908c13.529541 4.5177155 22.549194 10.541336 22.549194 16.564957" fill-rule="evenodd"></path><path fill="#4a86e8" stroke="#4a86e8" stroke-width="4.0" stroke-linecap="butt" d="m600.7153 103.027855l4.678528 -4.3105927l-12.532715 3.98909l12.164734 5.0000534z" fill-rule="evenodd"></path><path fill="#000000" fill-opacity="0.0" d="m277.6168 339.7743c115.71655 0 231.43307 -99.85828 231.43307 -199.71655" fill-rule="nonzero"></path><path stroke="#ff9900" stroke-width="4.0" stroke-linejoin="round" stroke-linecap="butt" d="m291.31738 339.3129l1.2068176 -0.08380127c0.4512024 -0.032806396 0.9022827 -0.06707764 1.3533325 -0.1027832c1.8040771 -0.14285278 3.6068726 -0.30892944 5.4078674 -0.49786377c7.20401 -0.7557678 14.379822 -1.8772278 21.499084 -3.3399658c14.238556 -2.9255676 28.251099 -7.216339 41.811646 -12.677338c27.121063 -10.921997 52.43405 -26.524872 74.13089 -45.24829c43.393707 -37.44684 72.322845 -87.37598 72.322845 -137.30511" fill-rule="evenodd"></path><path fill="#ff9900" stroke="#ff9900" stroke-width="4.0" stroke-linecap="butt" d="m291.31738 339.3129l4.344391 -4.647156l-12.200684 4.911743l12.503479 4.0798035z" fill-rule="evenodd"></path><path fill="#cfe2f3" d="m218.87927 166.01575l0 0c0 -18.177567 14.05191 -32.91339 31.385818 -32.91339l0 0c8.324051 0 16.307144 3.4676514 22.19313 9.640121c5.8859863 6.172455 9.192688 14.544098 9.192688 23.27327l0 0c0 18.177567 -14.05191 32.91339 -31.385818 32.91339l0 0c-17.333908 0 -31.385818 -14.735825 -31.385818 -32.91339z" fill-rule="nonzero"></path><path stroke="#674ea7" stroke-width="4.0" stroke-linejoin="round" stroke-linecap="butt" d="m218.87927 166.01575l0 0c0 -18.177567 14.05191 -32.91339 31.385818 -32.91339l0 0c8.324051 0 16.307144 3.4676514 22.19313 9.640121c5.8859863 6.172455 9.192688 14.544098 9.192688 23.27327l0 0c0 18.177567 -14.05191 32.91339 -31.385818 32.91339l0 0c-17.333908 0 -31.385818 -14.735825 -31.385818 -32.91339z" fill-rule="nonzero"></path><path fill="#000000" fill-opacity="0.0" d="m250.02625 200.96457l1.6378021 107.55905" fill-rule="nonzero"></path><path stroke="#0000ff" stroke-width="4.0" stroke-linejoin="round" stroke-linecap="butt" d="m250.02625 200.96457l1.2723999 83.56183" fill-rule="evenodd"></path><path fill="#0000ff" stroke="#0000ff" stroke-width="4.0" stroke-linecap="butt" d="m244.69247 284.62698l6.882538 18.049713l6.3298035 -18.250885z" fill-rule="evenodd"></path><path fill="#000000" fill-opacity="0.0" d="m255.2231 235.61023l56.063004 0l0 38.26773l-56.063004 0z" fill-rule="nonzero"></path><path fill="#0000ff" d="m287.88934 267.65024l-3.1562195 0l-0.609375 -7.921875l-3.796875 7.921875l-3.125 0l-1.5625 -12.453125l3.0 0l0.859375 8.34375l3.875 -8.34375l3.0625 0l0.421875 8.34375l3.8593445 -8.34375l3.375 0l-6.203125 12.453125z" fill-rule="nonzero"></path><path fill="#000000" fill-opacity="0.0" d="m355.979 437.90027c-53.19684 0 -106.39371 -34.456696 -106.39371 -68.91339" fill-rule="nonzero"></path><path stroke="#dd7e6b" stroke-width="4.0" stroke-linejoin="round" stroke-linecap="butt" d="m355.979 437.90027c-53.19684 0 -106.39371 -34.456696 -106.39371 -68.91339" fill-rule="nonzero"></path><path fill="#000000" fill-opacity="0.0" d="m529.2546 378.8058c-10.746643 0 0.16809082 14.771637 -21.493317 29.543304c-21.661407 14.771637 -75.89899 29.543304 -151.798 29.543304" fill-rule="nonzero"></path><path stroke="#dd7e6b" stroke-width="4.0" stroke-linejoin="round" stroke-linecap="butt" d="m521.9621 390.41348l-0.10675049 0.34936523c-0.059814453 0.18969727 -0.12200928 0.38098145 -0.18676758 0.57366943c-0.1295166 0.385437 -0.26934814 0.7767029 -0.42108154 1.1734009c-0.60705566 1.5868225 -1.4053345 3.2601624 -2.5007324 4.9912415c-2.190796 3.4620972 -5.5701294 7.154999 -10.985474 10.847931c-21.661438 14.771637 -75.89905 29.543304 -151.79803 29.543304" fill-rule="evenodd"></path><path fill="#dd7e6b" stroke="#dd7e6b" stroke-width="4.0" stroke-linecap="butt" d="m521.9621 390.41348l1.4160156 6.201996l2.765686 -12.858185l-10.383667 8.072205z" fill-rule="evenodd"></path><path fill="#000000" fill-opacity="0.0" d="m497.80185 358.19946l0 0c0 -18.177551 14.05191 -32.91336 31.385834 -32.91336l0 0c8.324036 0 16.307129 3.4676514 22.193115 9.640106c5.8859863 6.172455 9.192688 14.544098 9.192688 23.273254l0 0c0 18.177582 -14.05188 32.91339 -31.385803 32.91339l0 0c-17.333923 0 -31.385834 -14.735809 -31.385834 -32.91339z" fill-rule="nonzero"></path><path stroke="#dd7e6b" stroke-width="4.0" stroke-linejoin="round" stroke-linecap="butt" d="m497.80185 358.19946l0 0c0 -18.177551 14.05191 -32.91336 31.385834 -32.91336l0 0c8.324036 0 16.307129 3.4676514 22.193115 9.640106c5.8859863 6.172455 9.192688 14.544098 9.192688 23.273254l0 0c0 18.177582 -14.05188 32.91339 -31.385803 32.91339l0 0c-17.333923 0 -31.385834 -14.735809 -31.385834 -32.91339z" fill-rule="nonzero"></path><path fill="#000000" fill-opacity="0.0" d="m271.34384 438.4987l255.21262 0l0 38.26773l-255.21262 0z" fill-rule="nonzero"></path><path fill="#dd7e6b" d="m294.44568 454.6843l2.171875 0l0 5.8125q0 1.390625 0.078125 1.796875q0.140625 0.65625 0.65625 1.0625q0.53125 0.390625 1.4375 0.390625q0.921875 0 1.390625 -0.375q0.46875 -0.375 0.5625 -0.921875q0.09375 -0.546875 0.09375 -1.828125l0 -5.9375l2.171875 0l0 5.640625q0 1.921875 -0.1875 2.734375q-0.171875 0.796875 -0.640625 1.34375q-0.46875 0.546875 -1.265625 0.875q-0.78125 0.328125 -2.0625 0.328125q-1.53125 0 -2.328125 -0.359375q-0.796875 -0.359375 -1.265625 -0.921875q-0.453125 -0.5625 -0.59375 -1.1875q-0.21875 -0.921875 -0.21875 -2.734375l0 -5.71875zm10.521759 2.953125l1.921875 0l0 1.140625q0.375 -0.578125 1.0 -0.9375q0.640625 -0.375 1.421875 -0.375q1.359375 0 2.296875 1.0625q0.953125 1.0625 0.953125 2.953125q0 1.953125 -0.953125 3.03125q-0.953125 1.078125 -2.3125 1.078125q-0.640625 0 -1.171875 -0.25q-0.515625 -0.265625 -1.09375 -0.875l0 3.90625l-2.0625 0l0 -10.734375zm2.03125 3.765625q0 1.3125 0.515625 1.9375q0.53125 0.625 1.28125 0.625q0.71875 0 1.1875 -0.578125q0.484375 -0.578125 0.484375 -1.890625q0 -1.21875 -0.5 -1.8125q-0.484375 -0.59375 -1.203125 -0.59375q-0.765625 0 -1.265625 0.59375q-0.5 0.578125 -0.5 1.71875zm14.108887 4.015625l-1.90625 0l0 -1.140625q-0.46875 0.671875 -1.125 1.0q-0.640625 0.3125 -1.296875 0.3125q-1.34375 0 -2.3125 -1.078125q-0.953125 -1.078125 -0.953125 -3.015625q0 -1.96875 0.921875 -3.0q0.9375 -1.03125 2.359375 -1.03125q1.3125 0 2.265625 1.078125l0 -3.859375l2.046875 0l0 10.734375zm-5.484375 -4.0625q0 1.25 0.34375 1.8125q0.5 0.796875 1.390625 0.796875q0.703125 0 1.203125 -0.59375q0.5 -0.609375 0.5 -1.8125q0 -1.34375 -0.484375 -1.921875q-0.484375 -0.59375 -1.234375 -0.59375q-0.734375 0 -1.234375 0.578125q-0.484375 0.578125 -0.484375 1.734375zm8.843231 -1.34375l-1.859375 -0.34375q0.3125 -1.125 1.078125 -1.65625q0.765625 -0.546875 2.28125 -0.546875q1.390625 0 2.0625 0.328125q0.671875 0.328125 0.9375 0.828125q0.28125 0.5 0.28125 1.84375l-0.015625 2.390625q0 1.03125 0.09375 1.515625q0.09375 0.484375 0.375 1.046875l-2.046875 0q-0.078125 -0.203125 -0.1875 -0.609375q-0.0625 -0.1875 -0.078125 -0.234375q-0.53125 0.5 -1.140625 0.765625q-0.59375 0.25 -1.265625 0.25q-1.203125 0 -1.90625 -0.640625q-0.6875 -0.65625 -0.6875 -1.65625q0 -0.65625 0.3125 -1.171875q0.328125 -0.515625 0.890625 -0.78125q0.5625 -0.28125 1.640625 -0.5q1.4375 -0.265625 2.0 -0.5l0 -0.203125q0 -0.59375 -0.296875 -0.84375q-0.296875 -0.25 -1.109375 -0.25q-0.546875 0 -0.859375 0.21875q-0.296875 0.203125 -0.5 0.75zm2.765625 1.671875q-0.40625 0.125 -1.265625 0.3125q-0.84375 0.1875 -1.109375 0.359375q-0.40625 0.28125 -0.40625 0.71875q0 0.4375 0.3125 0.75q0.328125 0.3125 0.828125 0.3125q0.5625 0 1.0625 -0.359375q0.375 -0.28125 0.484375 -0.6875q0.09375 -0.25 0.09375 -1.0l0 -0.40625zm7.416748 -4.046875l0 1.640625l-1.40625 0l0 3.140625q0 0.953125 0.03125 1.109375q0.046875 0.15625 0.1875 0.265625q0.15625 0.09375 0.359375 0.09375q0.28125 0 0.828125 -0.203125l0.171875 1.609375q-0.71875 0.296875 -1.625 0.296875q-0.5625 0 -1.015625 -0.1875q-0.4375 -0.1875 -0.65625 -0.484375q-0.203125 -0.296875 -0.28125 -0.796875q-0.0625 -0.359375 -0.0625 -1.453125l0 -3.390625l-0.9375 0l0 -1.640625l0.9375 0l0 -1.546875l2.0625 -1.203125l0 2.75l1.40625 0zm5.8181458 5.3125l2.046875 0.34375q-0.390625 1.125 -1.25 1.71875q-0.84375 0.578125 -2.125 0.578125q-2.03125 0 -3.0 -1.328125q-0.78125 -1.0625 -0.78125 -2.671875q0 -1.9375 1.015625 -3.03125q1.015625 -1.09375 2.5625 -1.09375q1.734375 0 2.734375 1.15625q1.0 1.140625 0.953125 3.5l-5.15625 0q0.03125 0.921875 0.5 1.4375q0.484375 0.5 1.1875 0.5q0.484375 0 0.8125 -0.265625q0.328125 -0.265625 0.5 -0.84375zm0.125 -2.09375q-0.03125 -0.890625 -0.46875 -1.34375q-0.4375 -0.46875 -1.0625 -0.46875q-0.671875 0 -1.125 0.484375q-0.4375 0.5 -0.421875 1.328125l3.078125 0zm7.5355835 -3.21875l1.921875 0l0 1.140625q0.375 -0.578125 1.0 -0.9375q0.640625 -0.375 1.421875 -0.375q1.359375 0 2.296875 1.0625q0.953125 1.0625 0.953125 2.953125q0 1.953125 -0.953125 3.03125q-0.953125 1.078125 -2.3125 1.078125q-0.640625 0 -1.171875 -0.25q-0.515625 -0.265625 -1.09375 -0.875l0 3.90625l-2.0625 0l0 -10.734375zm2.03125 3.765625q0 1.3125 0.515625 1.9375q0.53125 0.625 1.28125 0.625q0.71875 0 1.1875 -0.578125q0.484375 -0.578125 0.484375 -1.890625q0 -1.21875 -0.5 -1.8125q-0.484375 -0.59375 -1.203125 -0.59375q-0.765625 0 -1.265625 0.59375q-0.5 0.578125 -0.5 1.71875zm6.499481 0.015625q0 -1.03125 0.5 -1.984375q0.515625 -0.953125 1.4375 -1.453125q0.9375 -0.515625 2.078125 -0.515625q1.765625 0 2.890625 1.15625q1.125 1.140625 1.125 2.890625q0 1.765625 -1.140625 2.921875q-1.140625 1.15625 -2.859375 1.15625q-1.078125 0 -2.046875 -0.484375q-0.96875 -0.484375 -1.484375 -1.40625q-0.5 -0.9375 -0.5 -2.28125zm2.109375 0.109375q0 1.15625 0.546875 1.78125q0.5625 0.609375 1.359375 0.609375q0.8125 0 1.359375 -0.609375q0.546875 -0.625 0.546875 -1.796875q0 -1.140625 -0.546875 -1.75q-0.546875 -0.625 -1.359375 -0.625q-0.796875 0 -1.359375 0.625q-0.546875 0.609375 -0.546875 1.765625zm6.8432617 -0.109375q0 -1.03125 0.5 -1.984375q0.515625 -0.953125 1.4375 -1.453125q0.9375 -0.515625 2.078125 -0.515625q1.765625 0 2.890625 1.15625q1.125 1.140625 1.125 2.890625q0 1.765625 -1.140625 2.921875q-1.140625 1.15625 -2.859375 1.15625q-1.078125 0 -2.046875 -0.484375q-0.96875 -0.484375 -1.484375 -1.40625q-0.5 -0.9375 -0.5 -2.28125zm2.109375 0.109375q0 1.15625 0.546875 1.78125q0.5625 0.609375 1.359375 0.609375q0.8125 0 1.359375 -0.609375q0.546875 -0.625 0.546875 -1.796875q0 -1.140625 -0.546875 -1.75q-0.546875 -0.625 -1.359375 -0.625q-0.796875 0 -1.359375 0.625q-0.546875 0.609375 -0.546875 1.765625zm7.327606 3.890625l0 -10.734375l2.0625 0l0 10.734375l-2.0625 0zm9.597076 0l-2.46875 -7.78125l2.0 0l1.453125 5.09375l1.34375 -5.09375l1.984375 0l1.296875 5.09375l1.484375 -5.09375l2.03125 0l-2.5 7.78125l-1.96875 0l-1.34375 -5.0l-1.3125 5.0l-2.0 0zm9.462616 -4.0q0 -1.03125 0.5 -1.984375q0.515625 -0.953125 1.4375 -1.453125q0.9375 -0.515625 2.078125 -0.515625q1.765625 0 2.890625 1.15625q1.125 1.140625 1.125 2.890625q0 1.765625 -1.140625 2.921875q-1.140625 1.15625 -2.859375 1.15625q-1.078125 0 -2.046875 -0.484375q-0.96875 -0.484375 -1.484375 -1.40625q-0.5 -0.9375 -0.5 -2.28125zm2.109375 0.109375q0 1.15625 0.546875 1.78125q0.5625 0.609375 1.359375 0.609375q0.8125 0 1.359375 -0.609375q0.546875 -0.625 0.546875 -1.796875q0 -1.140625 -0.546875 -1.75q-0.546875 -0.625 -1.359375 -0.625q-0.796875 0 -1.359375 0.625q-0.546875 0.609375 -0.546875 1.765625zm9.296387 3.890625l-2.0625 0l0 -7.78125l1.921875 0l0 1.109375q0.484375 -0.78125 0.875 -1.03125q0.390625 -0.25 0.890625 -0.25q0.703125 0 1.359375 0.390625l-0.640625 1.796875q-0.515625 -0.34375 -0.96875 -0.34375q-0.4375 0 -0.734375 0.25q-0.296875 0.234375 -0.46875 0.859375q-0.171875 0.609375 -0.171875 2.59375l0 2.40625zm10.859863 0l-1.90625 0l0 -1.140625q-0.46875 0.671875 -1.125 1.0q-0.640625 0.3125 -1.296875 0.3125q-1.34375 0 -2.3125 -1.078125q-0.953125 -1.078125 -0.953125 -3.015625q0 -1.96875 0.921875 -3.0q0.9375 -1.03125 2.359375 -1.03125q1.3125 0 2.265625 1.078125l0 -3.859375l2.046875 0l0 10.734375zm-5.484375 -4.0625q0 1.25 0.34375 1.8125q0.5 0.796875 1.390625 0.796875q0.703125 0 1.203125 -0.59375q0.5 -0.609375 0.5 -1.8125q0 -1.34375 -0.484375 -1.921875q-0.484375 -0.59375 -1.234375 -0.59375q-0.734375 0 -1.234375 0.578125q-0.484375 0.578125 -0.484375 1.734375zm11.383972 -4.765625l0 -1.90625l2.0625 0l0 1.90625l-2.0625 0zm0 8.828125l0 -7.78125l2.0625 0l0 7.78125l-2.0625 0zm11.150116 0l-2.0625 0l0 -3.96875q0 -1.265625 -0.140625 -1.625q-0.125 -0.375 -0.421875 -0.578125q-0.296875 -0.203125 -0.71875 -0.203125q-0.53125 0 -0.953125 0.296875q-0.421875 0.28125 -0.578125 0.765625q-0.15625 0.484375 -0.15625 1.796875l0 3.515625l-2.0625 0l0 -7.78125l1.90625 0l0 1.140625q1.015625 -1.3125 2.5625 -1.3125q0.6875 0 1.25 0.25q0.5625 0.234375 0.84375 0.625q0.296875 0.375 0.40625 0.859375q0.125 0.484375 0.125 1.390625l0 4.828125zm5.883972 -7.78125l1.921875 0l0 1.140625q0.375 -0.578125 1.0 -0.9375q0.640625 -0.375 1.421875 -0.375q1.359375 0 2.296875 1.0625q0.953125 1.0625 0.953125 2.953125q0 1.953125 -0.953125 3.03125q-0.953125 1.078125 -2.3125 1.078125q-0.640625 0 -1.171875 -0.25q-0.515625 -0.265625 -1.09375 -0.875l0 3.90625l-2.0625 0l0 -10.734375zm2.03125 3.765625q0 1.3125 0.515625 1.9375q0.53125 0.625 1.28125 0.625q0.71875 0 1.1875 -0.578125q0.484375 -0.578125 0.484375 -1.890625q0 -1.21875 -0.5 -1.8125q-0.484375 -0.59375 -1.203125 -0.59375q-0.765625 0 -1.265625 0.59375q-0.5 0.578125 -0.5 1.71875zm6.499481 0.015625q0 -1.03125 0.5 -1.984375q0.515625 -0.953125 1.4375 -1.453125q0.9375 -0.515625 2.078125 -0.515625q1.765625 0 2.890625 1.15625q1.125 1.140625 1.125 2.890625q0 1.765625 -1.140625 2.921875q-1.140625 1.15625 -2.859375 1.15625q-1.078125 0 -2.046875 -0.484375q-0.96875 -0.484375 -1.484375 -1.40625q-0.5 -0.9375 -0.5 -2.28125zm2.109375 0.109375q0 1.15625 0.546875 1.78125q0.5625 0.609375 1.359375 0.609375q0.8125 0 1.359375 -0.609375q0.546875 -0.625 0.546875 -1.796875q0 -1.140625 -0.546875 -1.75q-0.546875 -0.625 -1.359375 -0.625q-0.796875 0 -1.359375 0.625q-0.546875 0.609375 -0.546875 1.765625zm6.6088867 1.671875l2.0625 -0.3125q0.125 0.59375 0.53125 0.90625q0.40625 0.3125 1.125 0.3125q0.796875 0 1.203125 -0.296875q0.265625 -0.203125 0.265625 -0.546875q0 -0.234375 -0.140625 -0.390625q-0.15625 -0.140625 -0.6875 -0.265625q-2.484375 -0.546875 -3.15625 -1.0q-0.921875 -0.640625 -0.921875 -1.75q0 -1.015625 0.796875 -1.703125q0.796875 -0.6875 2.46875 -0.6875q1.609375 0 2.375 0.515625q0.78125 0.515625 1.078125 1.546875l-1.953125 0.359375q-0.125 -0.453125 -0.46875 -0.6875q-0.34375 -0.25 -0.984375 -0.25q-0.8125 0 -1.171875 0.21875q-0.234375 0.15625 -0.234375 0.421875q0 0.21875 0.203125 0.375q0.28125 0.203125 1.921875 0.578125q1.65625 0.375 2.296875 0.90625q0.65625 0.5625 0.65625 1.53125q0 1.078125 -0.90625 1.84375q-0.890625 0.765625 -2.640625 0.765625q-1.59375 0 -2.515625 -0.640625q-0.921875 -0.640625 -1.203125 -1.75zm8.869843 -6.609375l0 -1.90625l2.0625 0l0 1.90625l-2.0625 0zm0 8.828125l0 -7.78125l2.0625 0l0 7.78125l-2.0625 0zm7.634491 -7.78125l0 1.640625l-1.40625 0l0 3.140625q0 0.953125 0.03125 1.109375q0.046875 0.15625 0.1875 0.265625q0.15625 0.09375 0.359375 0.09375q0.28125 0 0.828125 -0.203125l0.171875 1.609375q-0.71875 0.296875 -1.625 0.296875q-0.5625 0 -1.015625 -0.1875q-0.4375 -0.1875 -0.65625 -0.484375q-0.203125 -0.296875 -0.28125 -0.796875q-0.0625 -0.359375 -0.0625 -1.453125l0 -3.390625l-0.9375 0l0 -1.640625l0.9375 0l0 -1.546875l2.0625 -1.203125l0 2.75l1.40625 0zm1.3181458 -1.046875l0 -1.90625l2.0625 0l0 1.90625l-2.0625 0zm0 8.828125l0 -7.78125l2.0625 0l0 7.78125l-2.0625 0zm3.5875854 -4.0q0 -1.03125 0.5 -1.984375q0.515625 -0.953125 1.4375 -1.453125q0.9375 -0.515625 2.078125 -0.515625q1.765625 0 2.890625 1.15625q1.125 1.140625 1.125 2.890625q0 1.765625 -1.140625 2.921875q-1.140625 1.15625 -2.859375 1.15625q-1.078125 0 -2.046875 -0.484375q-0.96875 -0.484375 -1.484375 -1.40625q-0.5 -0.9375 -0.5 -2.28125zm2.109375 0.109375q0 1.15625 0.546875 1.78125q0.5625 0.609375 1.359375 0.609375q0.8125 0 1.359375 -0.609375q0.546875 -0.625 0.546875 -1.796875q0 -1.140625 -0.546875 -1.75q-0.546875 -0.625 -1.359375 -0.625q-0.796875 0 -1.359375 0.625q-0.546875 0.609375 -0.546875 1.765625zm14.405762 3.890625l-2.0625 0l0 -3.96875q0 -1.265625 -0.140625 -1.625q-0.125 -0.375 -0.421875 -0.578125q-0.296875 -0.203125 -0.71875 -0.203125q-0.53125 0 -0.953125 0.296875q-0.421875 0.28125 -0.578125 0.765625q-0.15625 0.484375 -0.15625 1.796875l0 3.515625l-2.0625 0l0 -7.78125l1.90625 0l0 1.140625q1.015625 -1.3125 2.5625 -1.3125q0.6875 0 1.25 0.25q0.5625 0.234375 0.84375 0.625q0.296875 0.375 0.40625 0.859375q0.125 0.484375 0.125 1.390625l0 4.828125z" fill-rule="nonzero"></path><path fill="#dd7e6b" d="m500.7088 454.23117l0 -2.40625l2.609375 0l0 2.40625l-2.609375 0zm0 11.1875l0 -9.859375l2.609375 0l0 9.859375l-2.609375 0z" fill-rule="nonzero"></path></g></svg>

